<?xml version="1.0" encoding="UTF-8"?>
<svg version="1.1" xmlns="http://www.w3.org/2000/svg" width="500" height="500">
<path d="M0 0 C201.8647343 0 201.8647343 0 230 28 C230.845625 28.81082031 231.69125 29.62164062 232.5625 30.45703125 C250.22412621 48.41481277 255.38077641 73.85619894 255.23022461 98.19726562 C254.92442907 117.07090728 250.6403217 133.90982489 239 149 C238.484375 149.67417969 237.96875 150.34835938 237.4375 151.04296875 C226.25433016 164.80920771 209.57095642 174.01662712 193.1171875 180.05859375 C192.06917969 180.52458984 192.06917969 180.52458984 191 181 C190.11306697 183.04105639 190.11306697 183.04105639 190 185 C190.84304687 185.16822266 190.84304687 185.16822266 191.703125 185.33984375 C194.31513108 186.09057339 196.39471322 187.21167376 198.75 188.5625 C199.54921875 189.01753906 200.3484375 189.47257813 201.171875 189.94140625 C201.77515625 190.29074219 202.3784375 190.64007813 203 191 C203 191.66 203 192.32 203 193 C204.65 193.66 206.3 194.32 208 195 C208 195.66 208 196.32 208 197 C208.58265625 197.23847656 209.1653125 197.47695312 209.765625 197.72265625 C212.46049904 199.26325732 213.86316352 200.98219356 215.75 203.4375 C216.36359375 204.21996094 216.9771875 205.00242188 217.609375 205.80859375 C219 208 219 208 219 211 C208.20153227 211.07024335 197.40312098 211.12318158 186.6044693 211.15543652 C181.58746638 211.17093566 176.57062241 211.19187661 171.55371094 211.22631836 C134.04012422 211.47710737 134.04012422 211.47710737 120.53125 209.55078125 C104.47637301 207.39163959 88.19349931 207.43766214 72 207 C72 255.84 72 304.68 72 355 C48.24 355 24.48 355 0 355 C0 237.85 0 120.7 0 0 Z M72 57 C72 88.02 72 119.04 72 151 C87.9328125 151.0309375 87.9328125 151.0309375 104.1875 151.0625 C107.51481201 151.071604 110.84212402 151.08070801 114.27026367 151.09008789 C116.94449829 151.09301193 119.61873336 151.09555934 122.29296875 151.09765625 C122.96886551 151.10026962 123.64476227 151.102883 124.34114075 151.10557556 C142.02822426 151.50476973 142.02822426 151.50476973 158.9375 147.1875 C160.14277344 146.68605469 161.34804687 146.18460937 162.58984375 145.66796875 C165.97888886 144.01032584 168.9938467 142.2803756 172 140 C172.495 138.515 172.495 138.515 173 137 C173.66 137 174.32 137 175 137 C184.77293969 125.72981328 185.58337214 111.26191369 185 97 C183.99404367 85.14408608 179.91862764 75.1263122 171 67 C168.28173208 65.46865622 168.28173208 65.46865622 166 65 C166 64.34 166 63.68 166 63 C164.54683309 62.36308004 163.0870304 61.74130205 161.625 61.125 C160.81289062 60.77695313 160.00078125 60.42890625 159.1640625 60.0703125 C149.15893689 56.6858626 139.27100608 56.73383437 128.8359375 56.8046875 C127.37671054 56.80763461 125.91748146 56.80967093 124.45825195 56.81079102 C119.09713535 56.82120095 113.73606426 56.84912326 108.375 56.875 C90.369375 56.936875 90.369375 56.936875 72 57 Z " fill="#FD3A3B" transform="translate(37,12)"/>
<path d="M0 0 C7.35065985 -0.02531484 14.7013085 -0.04285202 22.05200195 -0.05493164 C24.55363383 -0.05996641 27.05526276 -0.06679461 29.55688477 -0.07543945 C33.14860766 -0.08754238 36.74029172 -0.09323682 40.33203125 -0.09765625 C41.45398392 -0.10281754 42.57593658 -0.10797882 43.73188782 -0.11329651 C45.29316658 -0.11340981 45.29316658 -0.11340981 46.88598633 -0.11352539 C48.2616552 -0.11685631 48.2616552 -0.11685631 49.66511536 -0.12025452 C52 0 52 0 55 1 C55.93554688 2.91430664 55.93554688 2.91430664 56.71875 5.41015625 C57.15767578 6.77237305 57.15767578 6.77237305 57.60546875 8.16210938 C58.04826172 9.59780273 58.04826172 9.59780273 58.5 11.0625 C59.09236149 12.92882669 59.68609298 14.79471915 60.28125 16.66015625 C60.57064453 17.5728125 60.86003906 18.48546875 61.15820312 19.42578125 C62.1028409 22.31448794 63.1486138 25.14984284 64.23632812 27.98706055 C65.72978085 31.92360713 67.10676029 35.90213743 68.5 39.875 C68.94279297 41.12603516 68.94279297 41.12603516 69.39453125 42.40234375 C70.80342414 46.41799882 72.14653934 50.43209488 73.33203125 54.51953125 C74.71648822 59.21840579 76.30179581 63.83418502 77.91796875 68.45703125 C78.18179352 69.21371094 78.44561829 69.97039062 78.71743774 70.75 C79.81955672 73.90783622 80.9233227 77.0650216 82.0378418 80.21850586 C82.85905387 82.54563013 83.67049515 84.87597559 84.48046875 87.20703125 C84.73354294 87.91543655 84.98661713 88.62384186 85.24736023 89.35371399 C86.58379407 93.22607111 87 95.80139575 87 100 C62.91 100 38.82 100 14 100 C13.01 96.7 12.02 93.4 11 90 C10.02585477 87.65575481 9.02457949 85.32264533 8 83 C0.34499591 64.28991807 -1.03294192 47.49698147 -0.5 27.4375 C-0.45503194 24.75725686 -0.42269933 22.07690885 -0.390625 19.39648438 C-0.30385307 12.92965353 -0.17113684 6.46512103 0 0 Z " fill="#FC3D3D" transform="translate(221,267)"/>
<path d="M0 0 C157 0 157 0 178 2 C178 2.33 178 2.66 178 3 C174.58335127 3.02908357 171.1667345 3.04682691 167.75 3.0625 C166.29787109 3.07506836 166.29787109 3.07506836 164.81640625 3.08789062 C163.88183594 3.09111328 162.94726562 3.09433594 161.984375 3.09765625 C161.12553711 3.10289307 160.26669922 3.10812988 159.38183594 3.11352539 C157 3 157 3 153 2 C78.255 1.505 78.255 1.505 2 1 C2 117.16 2 233.32 2 353 C24.44 353 46.88 353 70 353 C70 305.15 70 257.3 70 208 C70.66 207.67 71.32 207.34 72 207 C72 255.84 72 304.68 72 355 C48.24 355 24.48 355 0 355 C0 237.85 0 120.7 0 0 Z " fill="#EA7E7C" transform="translate(37,12)"/>
<path d="M0 0 C2.5 2.3125 2.5 2.3125 5 5 C5 5.99 5 6.98 5 8 C-5.79846773 8.07024335 -16.59687902 8.12318158 -27.3955307 8.15543652 C-32.41253362 8.17093566 -37.42937759 8.19187661 -42.44628906 8.22631836 C-81.80849139 8.48955277 -81.80849139 8.48955277 -99.95898438 5.70581055 C-108.2561296 4.44908889 -116.62440143 4.431857 -125 4.3125 C-126.67320031 4.27914014 -128.34637819 4.24463533 -130.01953125 4.20898438 C-134.01288978 4.12627735 -138.00621697 4.05852289 -142 4 C-142 3.34 -142 2.68 -142 2 C-126.82 2 -111.64 2 -96 2 C-96 2.66 -96 3.32 -96 4 C-94.71802734 3.98259766 -94.71802734 3.98259766 -93.41015625 3.96484375 C-92.30542969 3.95582031 -91.20070312 3.94679687 -90.0625 3.9375 C-88.96035156 3.92589844 -87.85820312 3.91429687 -86.72265625 3.90234375 C-84 4 -84 4 -83 5 C-81.59747663 5.15843223 -80.18732711 5.25002565 -78.77734375 5.31420898 C-77.86315674 5.35586685 -76.94896973 5.39752472 -76.00708008 5.44044495 C-74.99411865 5.47943405 -73.98115723 5.51842316 -72.9375 5.55859375 C-71.3455481 5.62197182 -71.3455481 5.62197182 -69.72143555 5.68663025 C-56.17596584 6.17042307 -42.62644183 6.11339221 -29.07476807 6.06866455 C-25.55375803 6.05820293 -22.03274003 6.05381946 -18.51171875 6.04882812 C-11.67446072 6.03828825 -4.83723263 6.02135667 2 6 C1.01 3.03 1.01 3.03 0 0 Z " fill="#E94240" transform="translate(251,215)"/>
<path d="M0 0 C0.33 0 0.66 0 1 0 C5.6921781 21.44995703 3.98131445 43.6811575 -4 64 C-4.33 64 -4.66 64 -5 64 C-4.4670388 59.668816 -3.671071 55.62749933 -2.50189209 51.41184998 C0.42851482 40.55596511 0.46499086 30.11195419 0.25 18.9375 C0.2298693 17.08791034 0.21163034 15.2382991 0.1953125 13.38867188 C0.15191742 8.92523249 0.0832684 4.46286618 0 0 Z " fill="#EC7C7E" transform="translate(289,82)"/>
<path d="M0 0 C2.5 2.3125 2.5 2.3125 5 5 C5 5.99 5 6.98 5 8 C-23.38 8 -51.76 8 -81 8 C-81 7.67 -81 7.34 -81 7 C-53.61 6.67 -26.22 6.34 2 6 C1.01 3.03 1.01 3.03 0 0 Z " fill="#EB8A8A" transform="translate(251,215)"/>
<path d="M0 0 C9.91861278 -0.06961852 19.83716709 -0.12287141 29.75597477 -0.15543652 C34.36206273 -0.17106893 38.96798309 -0.19226278 43.57397461 -0.22631836 C48.02194801 -0.25899847 52.46976054 -0.27687125 56.91784477 -0.28463173 C58.61185677 -0.29015974 60.30586032 -0.30095459 61.99980354 -0.31719017 C64.37904775 -0.33907983 66.75763362 -0.34196217 69.13696289 -0.34057617 C69.83180283 -0.351362 70.52664276 -0.36214783 71.24253845 -0.3732605 C76.24354004 -0.34189365 79.59539605 0.83512741 84 3 C84 3.33 84 3.66 84 4 C82.47897677 3.85616078 80.95819103 3.70980986 79.4375 3.5625 C78.59058594 3.48128906 77.74367188 3.40007812 76.87109375 3.31640625 C74.82626087 3.09105732 72.78718829 2.81055323 70.75462341 2.49305725 C67.14803679 2.0194402 63.6899475 1.84277813 60.05493164 1.79467773 C59.07316452 1.77982834 59.07316452 1.77982834 58.07156372 1.76467896 C55.93446314 1.73339972 53.79734043 1.70844129 51.66015625 1.68359375 C50.16799889 1.66299511 48.67584697 1.64199793 47.18370056 1.62062073 C43.27607671 1.56570027 39.36840285 1.51615993 35.46069336 1.46777344 C31.46528731 1.41733769 27.46995296 1.36176741 23.47460938 1.30664062 C15.64980048 1.19942691 7.82493154 1.09790192 0 1 C0 0.67 0 0.34 0 0 Z " fill="#E65151" transform="translate(109,67)"/>
<path d="M0 0 C3.16582128 4.74873191 4 8.27122214 4 14 C-20.09 14 -44.18 14 -69 14 C-69 13.67 -69 13.34 -69 13 C-33.855 12.505 -33.855 12.505 2 12 C1.01 8.04 1.01 8.04 0 4 C0 2.68 0 1.36 0 0 Z " fill="#F39E9E" transform="translate(304,353)"/>
<path d="M0 0 C-1.32 0.33 -2.64 0.66 -4 1 C-4 1.66 -4 2.32 -4 3 C-28.09 2.67 -52.18 2.34 -77 2 C-77 1.67 -77 1.34 -77 1 C-68.58466183 0.86861348 -60.16930997 0.73815646 -51.75393963 0.60884857 C-47.84531138 0.54876143 -43.93668839 0.48836792 -40.02807617 0.42724609 C-36.2479494 0.36814523 -32.46781047 0.3098859 -28.68766212 0.25218201 C-27.25375732 0.23015096 -25.81985695 0.20782929 -24.38596153 0.18519592 C-16.25688242 0.05709229 -8.1302669 -0.03359917 0 0 Z " fill="#D34C4C" transform="translate(186,162)"/>
<path d="M0 0 C8.9625106 2.70742508 17.10962916 7.68382673 24 14 C23.34 14.66 22.68 15.32 22 16 C22 15.34 22 14.68 22 14 C20.68 13.67 19.36 13.34 18 13 C18 12.34 18 11.68 18 11 C16.02 10.34 14.04 9.68 12 9 C12 8.34 12 7.68 12 7 C10.02 7 8.04 7 6 7 C5.67 7.66 5.34 8.32 5 9 C3.68 8.67 2.36 8.34 1 8 C0.67 5.36 0.34 2.72 0 0 Z " fill="#F93B3D" transform="translate(239,22)"/>
<path d="M0 0 C2.31 0.33 4.62 0.66 7 1 C7 1.66 7 2.32 7 3 C7.804375 3.12375 8.60875 3.2475 9.4375 3.375 C10.7059375 3.684375 10.7059375 3.684375 12 4 C12.33 4.66 12.66 5.32 13 6 C15.52733235 6.65555119 15.52733235 6.65555119 18 7 C18 7.99 18 8.98 18 10 C18.99 9.67 19.98 9.34 21 9 C21.92091738 11.57856865 22.18506902 12.5943287 21.0234375 15.140625 C20.51683594 16.06101562 20.51683594 16.06101562 20 17 C19.62488281 16.52949219 19.24976563 16.05898437 18.86328125 15.57421875 C15.82856757 11.88211118 13.21596462 9.35598023 9 7 C9 6.34 9 5.68 9 5 C8.46375 4.87625 7.9275 4.7525 7.375 4.625 C4.5361714 3.87793984 1.77776798 2.94696636 -1 2 C-0.67 1.34 -0.34 0.68 0 0 Z " fill="#F16062" transform="translate(194,70)"/>
<path d="M0 0 C0.66 0 1.32 0 2 0 C2 0.99 2 1.98 2 3 C2.66 3 3.32 3 4 3 C6.17978803 9.78885464 6.33869339 15.99563688 6.31567383 23.12573242 C6.31249142 25.19307141 6.33610386 27.25900687 6.36132812 29.32617188 C6.36197266 30.63521484 6.36261719 31.94425781 6.36328125 33.29296875 C6.36626221 34.4843042 6.36924316 35.67563965 6.37231445 36.90307617 C5.97295636 40.22494986 5.25373457 41.58834385 3 44 C3.0721875 43.29617187 3.144375 42.59234375 3.21875 41.8671875 C4.53985491 27.81209911 5.21089134 13.39943488 0 0 Z " fill="#DF4646" transform="translate(217,91)"/>
<path d="M0 0 C0 0.66 0 1.32 0 2 C0.85464844 1.98839844 1.70929688 1.97679687 2.58984375 1.96484375 C3.69457031 1.95582031 4.79929688 1.94679687 5.9375 1.9375 C7.03964844 1.92589844 8.14179688 1.91429687 9.27734375 1.90234375 C12 2 12 2 13 3 C14.77869726 3.15764405 16.56318476 3.25100677 18.34765625 3.31640625 C19.42724609 3.35830078 20.50683594 3.40019531 21.61914062 3.44335938 C23.32360352 3.50233398 23.32360352 3.50233398 25.0625 3.5625 C26.20267578 3.60568359 27.34285156 3.64886719 28.51757812 3.69335938 C31.34492195 3.79982839 34.17235738 3.90184207 37 4 C37 4.33 37 4.66 37 5 C21.52008576 5.22568003 6.35444262 5.09463773 -9 3 C-9 2.67 -9 2.34 -9 2 C-3.375 0 -3.375 0 0 0 Z " fill="#E84A4A" transform="translate(155,217)"/>
<path d="M0 0 C1.98 0.99 1.98 0.99 4 2 C4 2.66 4 3.32 4 4 C6.475 4.99 6.475 4.99 9 6 C9 6.66 9 7.32 9 8 C9.61875 8.2475 10.2375 8.495 10.875 8.75 C13.35068687 10.20628639 13.95125002 11.37812506 15 14 C14.01 14 13.02 14 12 14 C12 13.34 12 12.68 12 12 C10.02 12.33 8.04 12.66 6 13 C6 10.69 6 8.38 6 6 C4.02 5.34 2.04 4.68 0 4 C0 2.68 0 1.36 0 0 Z " fill="#F16062" transform="translate(236,201)"/>
<path d="M0 0 C1.8091244 3.61824879 3.20271838 7.13417051 4.5625 10.9375 C5.21412109 12.74541016 5.21412109 12.74541016 5.87890625 14.58984375 C6.80501491 17.40689204 7.50729304 20.08251047 8 23 C6.0625 22.5 6.0625 22.5 4 21 C3.51485171 18.26552779 3.2061867 15.74553873 3 13 C2.69830934 11.65915264 2.38482319 10.3193938 2 9 C1.34 9 0.68 9 0 9 C0 6.03 0 3.06 0 0 Z " fill="#EB5E5E" transform="translate(279,279)"/>
<path d="M0 0 C0.66 0 1.32 0 2 0 C0.41724516 12.87029594 0.41724516 12.87029594 -4 18 C-4.33 18 -4.66 18 -5 18 C-4.71311275 10.99995111 -3.49595688 6.08973134 0 0 Z " fill="#F25657" transform="translate(284,137)"/>
<path d="M0 0 C0.98120464 3.05263664 0.98120464 4.94736336 0 8 C-0.66 8 -1.32 8 -2 8 C-2.33 9.65 -2.66 11.3 -3 13 C-4.32 13.33 -5.64 13.66 -7 14 C-5.9284589 11.77449157 -4.79587609 9.66829864 -3.5 7.5625 C-2.0564466 5.09642962 -0.99329973 2.67426851 0 0 Z " fill="#EE6E71" transform="translate(219,135)"/>
<path d="M0 0 C0 0.66 0 1.32 0 2 C2.64 2 5.28 2 8 2 C8.33 2.66 8.66 3.32 9 4 C3.06 3.67 -2.88 3.34 -9 3 C-9 2.67 -9 2.34 -9 2 C-3.375 0 -3.375 0 0 0 Z " fill="#EE7B7B" transform="translate(155,217)"/>
<path d="M0 0 C1.1055189 0.93590504 2.20935453 1.87379858 3.3125 2.8125 C3.92738281 3.33457031 4.54226563 3.85664062 5.17578125 4.39453125 C8.51952278 7.3373102 8.51952278 7.3373102 10 9 C10 9.66 10 10.32 10 11 C8.125 10.6875 8.125 10.6875 6 10 C5.34 9.01 4.68 8.02 4 7 C3.01 7.495 3.01 7.495 2 8 C1.34 5.36 0.68 2.72 0 0 Z " fill="#ED6D6D" transform="translate(263,37)"/>
<path d="M0 0 C1.98 0 3.96 0 6 0 C3.03653214 2.47186455 0.45958311 3.66248361 -3.25 4.6875 C-4.14203125 4.93886719 -5.0340625 5.19023437 -5.953125 5.44921875 C-6.62859375 5.63097656 -7.3040625 5.81273437 -8 6 C-8.33 5.01 -8.66 4.02 -9 3 C-4.545 2.505 -4.545 2.505 0 2 C0 1.34 0 0.68 0 0 Z " fill="#ED7D7E" transform="translate(236,186)"/>
<path d="M0 0 C4.70270446 2.12741392 8.16393369 4.62060825 12 8 C11.34 8.66 10.68 9.32 10 10 C10 9.34 10 8.68 10 8 C8.68 7.67 7.36 7.34 6 7 C6 6.34 6 5.68 6 5 C4.02 4.34 2.04 3.68 0 3 C0 2.01 0 1.02 0 0 Z " fill="#EE8583" transform="translate(251,28)"/>
<path d="M0 0 C-1.3937282 4.43458973 -3.60582235 6.87378374 -7 10 C-7.33 8.68 -7.66 7.36 -8 6 C-7.01 6 -6.02 6 -5 6 C-5 4.35 -5 2.7 -5 1 C-2 0 -2 0 0 0 Z " fill="#EE7072" transform="translate(279,155)"/>
<path d="M0 0 C2.00293347 3.00440021 2.49271626 4.70993945 3.125 8.1875 C3.37636719 9.53908203 3.37636719 9.53908203 3.6328125 10.91796875 C3.75398438 11.60503906 3.87515625 12.29210937 4 13 C3.34 13 2.68 13 2 13 C2 12.01 2 11.02 2 10 C1.34 10 0.68 10 0 10 C0 6.7 0 3.4 0 0 Z M-2 10 C0 11 0 11 0 11 Z " fill="#EF6563" transform="translate(285,69)"/>
<path d="M0 0 C0.66 0 1.32 0 2 0 C2 0.99 2 1.98 2 3 C2.66 3 3.32 3 4 3 C5.03590199 8.05002222 5.10251672 12.87416389 5 18 C4.67 18 4.34 18 4 18 C3.87882813 17.20335938 3.75765625 16.40671875 3.6328125 15.5859375 C2.38116525 7.65498622 2.38116525 7.65498622 0 0 Z " fill="#EB7B7D" transform="translate(217,91)"/>
<path d="M0 0 C0.99 0.495 0.99 0.495 2 1 C1.67 2.32 1.34 3.64 1 5 C1.5775 5.103125 2.155 5.20625 2.75 5.3125 C5.32049158 6.09792798 6.93657284 7.30504197 9 9 C7.02 9 5.04 9 3 9 C3 8.34 3 7.68 3 7 C2.01 7 1.02 7 0 7 C0 4.69 0 2.38 0 0 Z " fill="#F07A7A" transform="translate(226,192)"/>
<path d="M0 0 C1.65 0.33 3.3 0.66 5 1 C3.37660195 2.70884005 1.70680947 4.37446717 0 6 C-0.66 6 -1.32 6 -2 6 C-2 4.68 -2 3.36 -2 2 C-1.34 2 -0.68 2 0 2 C0 1.34 0 0.68 0 0 Z " fill="#F16F71" transform="translate(258,172)"/>
<path d="M0 0 C2.87579981 4.31369972 4 7.80734761 4 13 C2.68 12.67 1.36 12.34 0 12 C0.66 12 1.32 12 2 12 C1.67 10.7625 1.34 9.525 1 8.25 C0.20108841 5.25408155 0 3.19892281 0 0 Z " fill="#EA8A8D" transform="translate(304,353)"/>
<path d="M0 0 C4.05281712 1.22527029 7.44360764 2.69880494 11 5 C8.3333581 6.33332095 6.83319697 5.67102033 4 5 C4 4.34 4 3.68 4 3 C2.68 3 1.36 3 0 3 C0 2.01 0 1.02 0 0 Z " fill="#EC787A" transform="translate(239,22)"/>
<path d="M0 0 C2.05883923 4.11767846 2.96165128 7.54993405 4 12 C2.68 11.34 1.36 10.68 0 10 C0 6.7 0 3.4 0 0 Z " fill="#F1777B" transform="translate(283,290)"/>
<path d="M0 0 C1.98 0.99 1.98 0.99 4 2 C4 2.66 4 3.32 4 4 C6.475 4.99 6.475 4.99 9 6 C8.67 6.66 8.34 7.32 8 8 C7.34 8 6.68 8 6 8 C6 7.34 6 6.68 6 6 C4.02 5.34 2.04 4.68 0 4 C0 2.68 0 1.36 0 0 Z " fill="#EF7E7D" transform="translate(236,201)"/>
<path d="M0 0 C0.66 0.33 1.32 0.66 2 1 C2.30466674 6.28089024 2.317124 7.577168 -1 12 C-0.67 8.04 -0.34 4.08 0 0 Z " fill="#EA6669" transform="translate(221,123)"/>
<path d="M0 0 C1.58467728 0.28427417 3.1677057 0.57774818 4.75 0.875 C6.07257813 1.11863281 6.07257813 1.11863281 7.421875 1.3671875 C9.86947744 1.96796264 11.80599857 2.77997117 14 4 C8.80790596 4.21192221 4.873261 3.5912689 0 2 C0 1.34 0 0.68 0 0 Z " fill="#ED8280" transform="translate(216,15)"/>
<path d="M0 0 C3.63 0 7.26 0 11 0 C9.68 0.33 8.36 0.66 7 1 C7 1.66 7 2.32 7 3 C5.02 3 3.04 3 1 3 C0.67 2.01 0.34 1.02 0 0 Z " fill="#EE7475" transform="translate(175,162)"/>
<path d="M0 0 C0 1.32 0 2.64 0 4 C-1.32 4.33 -2.64 4.66 -4 5 C-4 4.34 -4 3.68 -4 3 C-4.66 3 -5.32 3 -6 3 C-6 2.34 -6 1.68 -6 1 C-3.92446352 0.4465236 -2.15634036 0 0 0 Z " fill="#F26867" transform="translate(196,159)"/>
<path d="M0 0 C2.31 0 4.62 0 7 0 C4.37801226 2.15377564 2.35595828 3.40072174 -1 4 C-0.67 2.68 -0.34 1.36 0 0 Z " fill="#EF7D81" transform="translate(243,182)"/>
<path d="M0 0 C1.70884005 1.62339805 3.37446717 3.29319053 5 5 C5 5.66 5 6.32 5 7 C3.68 6.67 2.36 6.34 1 6 C0.67 4.02 0.34 2.04 0 0 Z " fill="#EF7978" transform="translate(273,48)"/>
</svg>
