<svg width="76" height="94" viewBox="0 0 76 94" fill="none" xmlns="http://www.w3.org/2000/svg">
<path d="M0.295455 94V0.909088H38.75C45.7197 0.909088 51.7349 2.16666 56.7955 4.68182C61.8864 7.16666 65.8106 10.7424 68.5682 15.4091C71.3258 20.0455 72.7045 25.5455 72.7045 31.9091C72.7045 38.3636 71.2955 43.8485 68.4773 48.3636C65.6591 52.8485 61.6591 56.2727 56.4773 58.6364C51.2955 60.9697 45.1591 62.1364 38.0682 62.1364H13.75V44.4091H33.8864C37.2803 44.4091 40.1136 43.9697 42.3864 43.0909C44.6894 42.1818 46.4318 40.8182 47.6136 39C48.7955 37.1515 49.3864 34.7879 49.3864 31.9091C49.3864 29.0303 48.7955 26.6515 47.6136 24.7727C46.4318 22.8636 44.6894 21.4394 42.3864 20.5C40.0833 19.5303 37.25 19.0455 33.8864 19.0455H22.7955V94H0.295455ZM52.7045 51.4545L75.8864 94H51.3409L28.6136 51.4545H52.7045Z" fill="#FF0000"/>
</svg>
