<?xml version="1.0" encoding="UTF-8"?>
<svg version="1.1" xmlns="http://www.w3.org/2000/svg" width="500" height="500">
<path d="M0 0 C20.09808145 -0.02341904 40.19616011 -0.04102326 60.2942524 -0.05181217 C69.62732526 -0.05695606 78.96038963 -0.0639622 88.29345703 -0.07543945 C96.43351144 -0.08544479 104.57355968 -0.09186729 112.71362007 -0.09408849 C117.01882623 -0.09538571 121.32401476 -0.09840838 125.62921524 -0.10573006 C129.69210573 -0.11258282 133.75497155 -0.11459838 137.81786728 -0.11310768 C139.29876592 -0.11337989 140.77966549 -0.11532957 142.26055908 -0.11920547 C175.92368293 -0.20289312 205.80890389 5.65978327 231.0859375 28.93359375 C233 31 233 31 233 33 C233.66 33 234.32 33 235 33 C236.6404154 35.24150624 238.14662087 37.4678831 239.625 39.8125 C240.04523438 40.45509766 240.46546875 41.09769531 240.8984375 41.75976562 C244 46.61854454 244 46.61854454 244 50 C244.66 50 245.32 50 246 50 C256.10566591 75.56373986 258.61896601 106.05748734 248.875 132.1875 C244.84549796 141.12566815 239.08275103 149.23718632 232 156 C231.24460937 156.72960937 230.48921875 157.45921875 229.7109375 158.2109375 C220.25463217 166.97146116 203.73391703 180 190 180 C190 181.65 190 183.3 190 185 C190.680625 185.2475 191.36125 185.495 192.0625 185.75 C204.56207802 191.06896937 213.79211778 200.65456352 221 212 C221.74609375 214.35546875 221.74609375 214.35546875 222 216 C223.11181641 216.14695313 223.11181641 216.14695313 224.24609375 216.296875 C246.06024302 219.39411039 266.50738886 225.67159258 285 238 C285 238.66 285 239.32 285 240 C286.32 240.33 287.64 240.66 289 241 C289 241.66 289 242.32 289 243 C289.59401611 243.27021973 290.18803223 243.54043945 290.80004883 243.81884766 C294.33771803 245.71821993 296.87504785 248.54697503 299.6875 251.375 C300.28111328 251.9525 300.87472656 252.53 301.48632812 253.125 C302.05158203 253.68960938 302.61683594 254.25421875 303.19921875 254.8359375 C303.71315186 255.34688965 304.22708496 255.8578418 304.7565918 256.38427734 C306.17654635 258.22940973 306.59023148 259.72733945 307 262 C307.66 262 308.32 262 309 262 C333.55135957 294.45294656 336.04311321 343.28757701 330.984375 382.23242188 C327.59445829 404.6460159 320.58872552 427.5653972 305.6640625 445.046875 C303.84749768 447.10159161 303.84749768 447.10159161 302 450 C301.34 450 300.68 450 300 450 C299.7525 450.57621094 299.505 451.15242188 299.25 451.74609375 C290.66392305 467.22786375 265.31724328 477.62202263 249.20703125 482.39306641 C245.25317885 483.48037582 241.26567906 484.36134538 237.25 485.1875 C236.51426758 485.3421875 235.77853516 485.496875 235.02050781 485.65625 C190.66361562 494.25472046 135.91240043 489 96 489 C96 398.58 96 308.16 96 215 C109.86 214.67 123.72 214.34 138 214 C116.30282015 205.32112806 94.50315715 207.57324774 71 207 C71 255.84 71 304.68 71 355 C47.9 355 24.8 355 1 355 C0 354 0 354 -0.1241985 351.60594314 C-0.12381878 350.53095489 -0.12343906 349.45596663 -0.12304783 348.34840298 C-0.12503888 347.11328989 -0.12702993 345.87817681 -0.12908131 344.60563606 C-0.12622772 343.21726935 -0.12328211 341.82890284 -0.12025452 340.4405365 C-0.12069009 338.97949392 -0.12156474 337.51845143 -0.12284368 336.05740935 C-0.12509138 332.02350169 -0.12106363 327.98962032 -0.11606562 323.95571601 C-0.11176522 319.61281639 -0.11320725 315.26991836 -0.1139679 310.92701721 C-0.11449339 303.39631229 -0.11134392 295.865616 -0.10573006 288.33491325 C-0.09761852 277.44665094 -0.09500019 266.55839282 -0.09374207 255.67012782 C-0.091551 238.00656396 -0.08488943 220.34300471 -0.07543945 202.67944336 C-0.06626675 185.51635766 -0.05918522 168.3532732 -0.05493164 151.19018555 C-0.05466892 150.13305184 -0.05440619 149.07591812 -0.05413551 147.98675006 C-0.05283051 142.68365948 -0.0515668 137.38056889 -0.05032361 132.07747829 C-0.03994929 88.051649 -0.02232949 44.02582474 0 0 Z M71 57 C71 88.02 71 119.04 71 151 C87.335 151.061875 87.335 151.061875 104 151.125 C107.40441406 151.14320801 110.80882812 151.16141602 114.31640625 151.18017578 C117.44030562 151.18687561 117.44030562 151.18687561 120.56420898 151.19088745 C121.92685259 151.19390491 123.2894918 151.20082291 124.65209961 151.21115112 C142.3151182 151.33802302 159.39637969 151.17587265 172.8046875 138.29296875 C182.19541595 128.48450327 184.86868349 116.38060569 185 103 C184.7990251 99.61317632 184.39011375 96.29002647 183.875 92.9375 C183.75817871 92.16486816 183.64135742 91.39223633 183.52099609 90.59619141 C181.6969144 80.40383165 176.32886434 70.8027018 167.8125 64.75 C158.28646255 58.85445911 148.52434827 56.86747975 137.41235352 56.88647461 C136.67800803 56.88635407 135.94366255 56.88623354 135.18706417 56.88610935 C132.83431293 56.88684959 130.48164313 56.89443685 128.12890625 56.90234375 C126.66662636 56.90381593 125.20434595 56.90483494 123.74206543 56.90539551 C118.34886886 56.91061641 112.95568361 56.92457768 107.5625 56.9375 C89.4640625 56.9684375 89.4640625 56.9684375 71 57 Z M151 261 C151 320.73 151 380.46 151 442 C206.69052017 444.73847676 206.69052017 444.73847676 254.3125 421.375 C263.80335377 411.26785703 268.74595602 399.28103998 272 386 C272.16371094 385.35740234 272.32742188 384.71480469 272.49609375 384.05273438 C279.42740746 355.55415113 277.47355585 317.5768776 262 292 C259.23236937 287.8186381 259.23236937 287.8186381 256 284 C255.34 284 254.68 284 254 284 C253.690625 283.13375 253.690625 283.13375 253.375 282.25 C251.50249112 279.18589456 249.03041481 277.84460032 246 276 C245.64963102 279.85405878 246.54431238 282.25645284 248.08862305 285.73217773 C250.53025774 291.80781251 252.16948455 298.21496324 254.0390625 304.484375 C255.75396978 310.16582353 257.65916862 315.54415603 260 321 C261.41210031 325.28873771 262.70507283 329.61215117 264 333.9375 C264.68510231 336.21816954 265.37254927 338.49813627 266.0625 340.77734375 C266.51302734 342.28155884 266.51302734 342.28155884 266.97265625 343.81616211 C268.18941154 347.58700473 269.60874686 351.28999162 271 355 C246.91 354.67 222.82 354.34 198 354 C197.01 350.37 196.02 346.74 195 343 C194.505 342.030625 194.01 341.06125 193.5 340.0625 C191.6028482 336.18914841 190.77310802 332.29636304 189.84375 328.09765625 C188.87982287 324.55879415 187.4456473 321.36955385 186 318 C185.15000815 315.27609873 184.34152041 312.55621047 183.5625 309.8125 C180.52247621 299.39617483 177.11414371 289.10633847 173.6875 278.8125 C173.41511505 277.99053131 173.1427301 277.16856262 172.86209106 276.32168579 C172.08206438 273.96980715 171.29769858 271.61942619 170.51171875 269.26953125 C170.27341339 268.55063721 170.03510803 267.83174316 169.7895813 267.09106445 C168.86041925 263.78474002 168.86041925 263.78474002 167 261 C161.72 261 156.44 261 151 261 Z " fill="#EA4899" transform="translate(68,4)"/>
<path d="M0 0 C66.16031805 0 66.16031805 0 84.90966797 0.15258789 C88.34625417 0.17905689 91.78255318 0.1923516 95.21923828 0.19555664 C115.01476743 0.22023227 133.77821011 0.6167298 153 6 C154.22364258 6.33209473 155.44728516 6.66418945 156.70800781 7.00634766 C167.89493124 10.23642995 179.5125907 16.27975174 189 23 C189 23.66 189 24.32 189 25 C190.32 25.33 191.64 25.66 193 26 C193 26.66 193 27.32 193 28 C193.59401611 28.27021973 194.18803223 28.54043945 194.80004883 28.81884766 C198.33771803 30.71821993 200.87504785 33.54697503 203.6875 36.375 C204.28111328 36.9525 204.87472656 37.53 205.48632812 38.125 C206.33420898 38.97191406 206.33420898 38.97191406 207.19921875 39.8359375 C207.71315186 40.34688965 208.22708496 40.8578418 208.7565918 41.38427734 C210.17654635 43.22940973 210.59023148 44.72733945 211 47 C211.66 47 212.32 47 213 47 C237.55135957 79.45294656 240.04311321 128.28757701 234.984375 167.23242188 C231.59445829 189.6460159 224.58872552 212.5653972 209.6640625 230.046875 C207.84749768 232.10159161 207.84749768 232.10159161 206 235 C205.34 235 204.68 235 204 235 C203.7525 235.57621094 203.505 236.15242187 203.25 236.74609375 C194.66392305 252.22786375 169.31724328 262.62202263 153.20703125 267.39306641 C149.25317885 268.48037582 145.26567906 269.36134538 141.25 270.1875 C140.51426758 270.3421875 139.77853516 270.496875 139.02050781 270.65625 C94.66361562 279.25472046 39.91240043 274 0 274 C0 183.58 0 93.16 0 0 Z M55 46 C55 105.73 55 165.46 55 227 C110.69052017 229.73847676 110.69052017 229.73847676 158.3125 206.375 C167.80335377 196.26785703 172.74595602 184.28103998 176 171 C176.16371094 170.35740234 176.32742188 169.71480469 176.49609375 169.05273438 C183.42740746 140.55415113 181.47355585 102.5768776 166 77 C163.23236937 72.8186381 163.23236937 72.8186381 160 69 C159.34 69 158.68 69 158 69 C157.690625 68.13375 157.690625 68.13375 157.375 67.25 C155.50249112 64.18589456 153.03041481 62.84460032 150 61 C149.64963102 64.85405878 150.54431238 67.25645284 152.08862305 70.73217773 C154.53025774 76.80781251 156.16948455 83.21496324 158.0390625 89.484375 C159.75396978 95.16582353 161.65916862 100.54415603 164 106 C165.41210031 110.28873771 166.70507283 114.61215117 168 118.9375 C168.68510231 121.21816954 169.37254927 123.49813627 170.0625 125.77734375 C170.51302734 127.28155884 170.51302734 127.28155884 170.97265625 128.81616211 C172.18941154 132.58700473 173.60874686 136.28999162 175 140 C150.91 139.67 126.82 139.34 102 139 C101.01 135.37 100.02 131.74 99 128 C98.505 127.030625 98.01 126.06125 97.5 125.0625 C95.6028482 121.18914841 94.77310802 117.29636304 93.84375 113.09765625 C92.87982287 109.55879415 91.4456473 106.36955385 90 103 C89.15000815 100.27609873 88.34152041 97.55621047 87.5625 94.8125 C84.52247621 84.39617483 81.11414371 74.10633847 77.6875 63.8125 C77.41511505 62.99053131 77.1427301 62.16856262 76.86209106 61.32168579 C76.08206438 58.96980715 75.29769858 56.61942619 74.51171875 54.26953125 C74.27341339 53.55063721 74.03510803 52.83174316 73.7895813 52.09106445 C72.86041925 48.78474002 72.86041925 48.78474002 71 46 C65.72 46 60.44 46 55 46 Z " fill="#14B7A6" transform="translate(164,219)"/>
<path d="M0 0 C5.61929063 -0.04991171 11.23844859 -0.08595882 16.85791016 -0.10986328 C18.76450858 -0.1198421 20.67109202 -0.13342996 22.57763672 -0.15087891 C42.08532423 -0.32478068 60.0297347 1.44677635 77.0625 11.875 C79.63948348 14.70136898 80.01703557 17.31159224 81 21 C82.39769657 25.61193227 83.82622088 30.21415997 85.25854492 34.81542969 C85.71102422 36.27130339 86.16187228 37.72768508 86.61108398 39.18457031 C87.26700571 41.31170266 87.92789048 43.43723796 88.58984375 45.5625 C88.98034912 46.82191406 89.37085449 48.08132813 89.77319336 49.37890625 C91.00517698 53.01528059 92.48308615 56.47478477 94 60 C94.69082708 62.05421224 95.34899604 64.11972152 95.97265625 66.1953125 C96.31490234 67.32324219 96.65714844 68.45117188 97.00976562 69.61328125 C97.35716797 70.77214844 97.70457031 71.93101562 98.0625 73.125 C98.75976663 75.44069286 99.4589154 77.75582002 100.16015625 80.0703125 C100.46574463 81.08883301 100.77133301 82.10735352 101.08618164 83.15673828 C101.95716616 86.00139042 101.95716616 86.00139042 103.11499023 88.68310547 C104 91 104 91 104 94 C79.91 94 55.82 94 31 94 C27.64356436 86.16831683 27.64356436 86.16831683 26.5 82.125 C25.56219273 78.89151867 24.58155477 75.68833333 23.5 72.5 C22.1602206 68.55044197 20.97871671 64.56760552 19.84375 60.5546875 C18.9975806 57.85690988 18.9975806 57.85690988 17.5925293 54.79760742 C16.02341589 51.1632304 14.82573765 47.47375366 13.67578125 43.68359375 C13.24256781 42.27040401 12.8084511 40.85749093 12.37353516 39.44482422 C12.14958069 38.71608093 11.92562622 37.98733765 11.69488525 37.23651123 C10.53146678 33.49201031 9.31892749 29.76368476 8.10546875 26.03515625 C7.86539093 25.29607025 7.62531311 24.55698425 7.37796021 23.79550171 C6.39503081 20.77085302 5.41048455 17.7467334 4.42504883 14.72290039 C3.69228232 12.47322002 2.96127008 10.22297562 2.23046875 7.97265625 C1.8930793 6.94012474 1.8930793 6.94012474 1.5488739 5.88673401 C0 1.11324 0 1.11324 0 0 Z " fill="#EA4899" transform="translate(235,265)"/>
<path d="M0 0 C66.16031805 0 66.16031805 0 84.90966797 0.15258789 C88.34625417 0.17905689 91.78255318 0.1923516 95.21923828 0.19555664 C117.10428398 0.22286092 138.08942656 0.62421583 159 8 C159 8.33 159 8.66 159 9 C155.78950123 9.15288089 153.31016506 9.10573809 150.25 8.0625 C146.49550788 6.83506989 142.99737162 6.53343977 139.07421875 6.24609375 C137 6 137 6 136 5 C134.59802598 4.85578846 133.18957169 4.77313876 131.78125 4.71875 C130.50701172 4.66267578 130.50701172 4.66267578 129.20703125 4.60546875 C128.31371094 4.57066406 127.42039062 4.53585938 126.5 4.5 C124.73940962 4.43140557 122.97897259 4.35871048 121.21875 4.28125 C120.43435547 4.25095703 119.64996094 4.22066406 118.84179688 4.18945312 C117 4 117 4 116 3 C114.05557409 2.88130462 112.10685653 2.83255978 110.15893555 2.81054688 C108.89957687 2.79382935 107.6402182 2.77711182 106.34269714 2.7598877 C104.94070454 2.74615552 103.53871173 2.73244361 102.13671875 2.71875 C100.6741322 2.70064774 99.2115518 2.6820422 97.74897766 2.66296387 C93.84825739 2.61314434 89.94749505 2.56884032 86.04669189 2.52606201 C58.02495574 2.21650567 30.01827707 1.63677902 2 1 C2 90.76 2 180.52 2 273 C42.26 272.67 82.52 272.34 124 272 C124 272.33 124 272.66 124 273 C82.80810257 276.43265812 41.3346774 274 0 274 C0 183.58 0 93.16 0 0 Z " fill="#6CCCC0" transform="translate(164,219)"/>
<path d="M0 0 C156 0 156 0 170 1 C170 1.33 170 1.66 170 2 C87.335 2.495 87.335 2.495 3 3 C2.13045391 63.38647909 2.13045391 63.38647909 1.73423767 123.77365112 C1.73020812 125.1898875 1.72611427 126.6061237 1.72196382 128.02235973 C1.71551195 130.2274111 1.70909851 132.4324625 1.70288758 134.63751457 C1.68135685 142.27180123 1.65508001 149.90607025 1.62875474 157.54034163 C1.58197341 171.13919035 1.53849006 184.73804729 1.49731445 198.33691406 C1.45748818 211.48763659 1.41596299 224.63835208 1.37231445 237.7890625 C1.36959018 238.61001761 1.36686591 239.43097273 1.36405908 240.27680527 C1.35037201 244.39838497 1.33665325 248.51996456 1.32291877 252.6415441 C1.21037257 286.42768116 1.10327549 320.21383333 1 354 C0.67 354 0.34 354 0 354 C0 237.18 0 120.36 0 0 Z " fill="#F196D5" transform="translate(68,4)"/>
<path d="M0 0 C0.33 0 0.66 0 1 0 C1 50.49 1 100.98 1 153 C34.01113106 152.31038225 34.01113106 152.31038225 67 151 C64.01730343 153.98269657 61.01602558 154.10033812 56.92578125 154.28125 C55.80139648 154.33732422 55.80139648 154.33732422 54.65429688 154.39453125 C53.08140384 154.46537047 51.50848665 154.5356752 49.93554688 154.60546875 C46.15638688 154.44119539 46.15638688 154.44119539 43 156 C40.79349344 156.10012401 38.58377614 156.1308118 36.375 156.1328125 C35.71290527 156.13376923 35.05081055 156.13472595 34.36865234 156.13571167 C32.96647039 156.13639326 31.5642853 156.13454042 30.16210938 156.13037109 C28.00904287 156.12502246 25.85618498 156.1303167 23.703125 156.13671875 C22.34374954 156.13605796 20.9843742 156.13477679 19.625 156.1328125 C18.37976563 156.13168457 17.13453125 156.13055664 15.8515625 156.12939453 C13 156 13 156 12 155 C8.04 154.67 4.08 154.34 0 154 C0 103.18 0 52.36 0 0 Z " fill="#69BFB5" transform="translate(218,293)"/>
<path d="M0 0 C1.29461655 0.0199855 2.58923309 0.03997101 3.92308044 0.06056213 C4.63523712 0.07016968 5.3473938 0.07977722 6.08113098 0.0896759 C8.44578091 0.12277716 10.81025242 0.16306666 13.17478943 0.2033844 C14.81003176 0.22767467 16.44528078 0.25151876 18.08053589 0.27493286 C22.39279267 0.33788268 26.7049317 0.40691822 31.01707458 0.47718811 C35.41399251 0.54777341 39.81099418 0.61264895 44.20799255 0.67799377 C52.8415488 0.80714649 61.47498905 0.94272341 70.10838318 1.08229065 C70.10838318 1.41229065 70.10838318 1.74229065 70.10838318 2.08229065 C46.34838318 2.08229065 22.58838318 2.08229065 -1.89161682 2.08229065 C-1.56161682 33.43229065 -1.23161682 64.78229065 -0.89161682 97.08229065 C-2.21161682 96.75229065 -3.53161682 96.42229065 -4.89161682 96.08229065 C-4.78429248 83.71304248 -4.67169574 71.34385481 -4.55227757 58.97471714 C-4.49700069 53.23186775 -4.44357322 47.48901332 -4.39430237 41.74610901 C-4.34672892 36.20884545 -4.29438893 30.67164598 -4.23867607 25.13445854 C-4.2182206 23.01686629 -4.19951293 20.89925643 -4.1825428 18.78163338 C-4.15856919 15.82653026 -4.1285054 12.87154951 -4.09693909 9.91651917 C-4.09118362 9.03179428 -4.08542816 8.1470694 -4.07949829 7.23553467 C-3.99243264 0.11361805 -3.99243264 0.11361805 0 0 Z " fill="#DD69A0" transform="translate(140.89161682128906,58.91770935058594)"/>
<path d="M0 0 C0.33 0 0.66 0 1 0 C9.0280175 34.17571376 8.03302418 74.90918349 -4 108 C-5.42090531 104.147344 -4.59231818 101.17802583 -3.6875 97.25 C-3.40519531 96.0125 -3.12289063 94.775 -2.83203125 93.5 C-2.55746094 92.345 -2.28289062 91.19 -2 90 C-1.79761719 89.13375 -1.59523438 88.2675 -1.38671875 87.375 C-0.17819149 82.35638298 -0.17819149 82.35638298 1 80 C1.17044676 77.02790515 1.28349421 74.07643346 1.3515625 71.1015625 C1.38629166 69.74531265 1.38629166 69.74531265 1.42172241 68.36166382 C1.46946862 66.43322556 1.5146893 64.50472341 1.55761719 62.57617188 C1.6233123 59.69891639 1.70169519 56.82221342 1.78125 53.9453125 C2.01695897 44.51512321 2.04260339 35.13525007 1.5859375 25.7109375 C1.54530182 24.86125397 1.50466614 24.01157043 1.46279907 23.13613892 C1.31391434 18.93283559 1.31391434 18.93283559 0 15 C-0.0716735 12.44842345 -0.09308442 9.92527029 -0.0625 7.375 C-0.05798828 6.66859375 -0.05347656 5.9621875 -0.04882812 5.234375 C-0.03703875 3.48954725 -0.01910324 1.744763 0 0 Z " fill="#21B2A2" transform="translate(395,310)"/>
<path d="M0 0 C1.74949772 2.62424658 2.65389981 4.55727216 3.625 7.5 C4.01558594 8.66015625 4.01558594 8.66015625 4.4140625 9.84375 C5 12 5 12 5 15 C-19.09 15 -43.18 15 -68 15 C-70 11 -70 11 -70 8 C-69.01 8 -68.02 8 -67 8 C-67 9.65 -67 11.3 -67 13 C-43.9 13 -20.8 13 3 13 C2.01 11.515 2.01 11.515 1 10 C0.5859375 7.51953125 0.5859375 7.51953125 0.375 4.8125 C0.26285156 3.46091797 0.26285156 3.46091797 0.1484375 2.08203125 C0.09945312 1.39496094 0.05046875 0.70789063 0 0 Z " fill="#D85291" transform="translate(334,344)"/>
<path d="M0 0 C4.86253477 7.29380215 4.32151561 16.77667689 4.25 25.25 C4.24613281 26.36938965 4.24226563 27.4887793 4.23828125 28.64208984 C4.12800287 39.49378877 3.20956808 50.22188447 2 61 C1.34 61 0.68 61 0 61 C-0.33 63.97 -0.66 66.94 -1 70 C-0.505 69.01 -0.505 69.01 0 68 C0.66 68 1.32 68 2 68 C0.34643078 71.58273331 -1.67980703 74.80973467 -4 78 C-4.66 78 -5.32 78 -6 78 C-6 79.32 -6 80.64 -6 82 C-6.99 81.67 -7.98 81.34 -9 81 C-8.67386719 80.18917969 -8.34773438 79.37835938 -8.01171875 78.54296875 C-1.54849718 62.16566099 1.3669279 46.49241586 1.20581055 28.8762207 C1.18741947 26.80342344 1.18530292 24.73107412 1.18554688 22.65820312 C1.16488424 15.05875522 0.8660263 7.55306478 0 0 Z " fill="#4CBAB0" transform="translate(341,329)"/>
<path d="M0 0 C5.61929063 -0.04991171 11.23844859 -0.08595882 16.85791016 -0.10986328 C18.76450858 -0.1198421 20.67109202 -0.13342996 22.57763672 -0.15087891 C42.1875014 -0.32569154 58.31172802 2.15586401 76 11 C75.67 11.66 75.34 12.32 75 13 C73.68 12.67 72.36 12.34 71 12 C71 11.34 71 10.68 71 10 C69.9171875 9.814375 69.9171875 9.814375 68.8125 9.625 C66 9 66 9 63.625 8 C60.45019616 6.79055092 57.35686469 6.45188563 54 6 C53.505 5.505 53.505 5.505 53 5 C51.50503158 4.79300437 50.0033408 4.63320741 48.5 4.5 C44.11111111 4.11111111 44.11111111 4.11111111 43 3 C40.04470496 2.83970312 37.11017543 2.74042672 34.15234375 2.68359375 C32.82270348 2.6524221 32.82270348 2.6524221 31.46620178 2.62062073 C28.623383 2.555026 25.78046883 2.49619448 22.9375 2.4375 C21.01496394 2.3943242 19.09243766 2.35071022 17.16992188 2.30664062 C12.44671332 2.19933457 7.72340847 2.09809549 3 2 C3.37125 2.928125 3.7425 3.85625 4.125 4.8125 C4.41375 5.864375 4.7025 6.91625 5 8 C4.01 9.485 4.01 9.485 3 11 C2.01 7.37 1.02 3.74 0 0 Z " fill="#AB689D" transform="translate(235,265)"/>
<path d="M0 0 C11.32026702 0.01501685 22.64009821 0.05723553 33.96013641 0.13209057 C39.21924795 0.16605702 44.47807838 0.19142252 49.73730469 0.19555664 C97.74718943 0.24625812 97.74718943 0.24625812 120 8 C120 8.33 120 8.66 120 9 C116.78950123 9.15288089 114.31016506 9.10573809 111.25 8.0625 C107.49550788 6.83506989 103.99737162 6.53343977 100.07421875 6.24609375 C98 6 98 6 97 5 C95.59802598 4.85578846 94.18957169 4.77313876 92.78125 4.71875 C91.50701172 4.66267578 91.50701172 4.66267578 90.20703125 4.60546875 C88.86705078 4.55326172 88.86705078 4.55326172 87.5 4.5 C85.73940962 4.43140557 83.97897259 4.35871048 82.21875 4.28125 C81.43435547 4.25095703 80.64996094 4.22066406 79.84179688 4.18945312 C78 4 78 4 77 3 C74.85962002 2.88125612 72.71533565 2.83255513 70.57177734 2.81054688 C69.90012543 2.80225357 69.22847351 2.79396027 68.53646851 2.78541565 C67.07250743 2.76797513 65.60851781 2.75281937 64.14451218 2.73963928 C61.82369421 2.71863922 59.50301686 2.69160853 57.18228149 2.66296387 C52.24657529 2.60316166 47.3108024 2.55114759 42.375 2.5 C36.67591839 2.44066641 30.97690396 2.37812267 25.27794266 2.30812073 C22.99866128 2.28168749 20.71937284 2.26077882 18.44003296 2.2401123 C17.02821545 2.22349041 15.61640087 2.20661696 14.20458984 2.18945312 C12.97960785 2.17692505 11.75462585 2.16439697 10.49252319 2.15148926 C6.93820006 1.99731941 3.51102514 1.56200012 0 1 C0 0.67 0 0.34 0 0 Z " fill="#43A4A5" transform="translate(203,219)"/>
<path d="M0 0 C1.5 1.375 1.5 1.375 3 3 C3 3.66 3 4.32 3 5 C-7.11810524 5.04630135 -17.23618536 5.081858 -27.35437489 5.10362434 C-32.05245005 5.11407008 -36.75045283 5.12824368 -41.44848633 5.15087891 C-45.98072205 5.17257914 -50.51288808 5.18456268 -55.04517174 5.18975449 C-56.77596827 5.19345532 -58.50676091 5.20068194 -60.23752785 5.21146011 C-62.65819221 5.22593762 -65.07856702 5.22797952 -67.49926758 5.22705078 C-68.57712524 5.23783661 -68.57712524 5.23783661 -69.67675781 5.24884033 C-73.35098917 5.23354469 -74.8536785 5.09754767 -78 3 C-70.04488462 2.97663206 -62.08978403 2.95896216 -54.1346426 2.94818783 C-50.43911447 2.94301172 -46.74361014 2.93601231 -43.0480957 2.92456055 C-39.46893651 2.9135412 -35.88979994 2.9076837 -32.31062508 2.90512276 C-30.30867389 2.90242799 -28.30673155 2.89464778 -26.30479431 2.88670349 C-17.48954537 2.88617513 -8.78417686 3.31103634 0 4 C0 2.68 0 1.36 0 0 Z " fill="#A36D9F" transform="translate(287,215)"/>
<path d="M0 0 C-2.98269657 2.98269657 -5.98397442 3.10033812 -10.07421875 3.28125 C-11.19860352 3.33732422 -11.19860352 3.33732422 -12.34570312 3.39453125 C-13.91859616 3.46537047 -15.49151335 3.5356752 -17.06445312 3.60546875 C-20.84361312 3.44119539 -20.84361312 3.44119539 -24 5 C-26.20650656 5.10012401 -28.41622386 5.1308118 -30.625 5.1328125 C-31.28709473 5.13376923 -31.94918945 5.13472595 -32.63134766 5.13571167 C-34.03352961 5.13639326 -35.4357147 5.13454042 -36.83789062 5.13037109 C-38.99095713 5.12502246 -41.14381502 5.1303167 -43.296875 5.13671875 C-44.65625046 5.13605796 -46.0156258 5.13477679 -47.375 5.1328125 C-48.62023437 5.13168457 -49.86546875 5.13055664 -51.1484375 5.12939453 C-54 5 -54 5 -55 4 C-57.01594582 3.76572222 -59.038474 3.58663876 -61.0625 3.4375 C-62.16722656 3.35371094 -63.27195313 3.26992188 -64.41015625 3.18359375 C-65.26480469 3.12300781 -66.11945313 3.06242187 -67 3 C-67 2.67 -67 2.34 -67 2 C-66.44448959 1.98969254 -65.88897919 1.97938507 -65.31663513 1.96876526 C-59.45880459 1.85936351 -53.6010875 1.74490014 -47.7434082 1.62768555 C-45.56634936 1.58475853 -43.38926588 1.54306034 -41.2121582 1.50268555 C-30.09127381 1.2956546 -19.00154048 1.07275393 -7.91040039 0.19897461 C-5.26146866 0.01787576 -2.65385265 -0.03659002 0 0 Z " fill="#51C3B7" transform="translate(285,444)"/>
<path d="M0 0 C1.37562854 1.28965176 2.70766393 2.62689293 4 4 C4 4.66 4 5.32 4 6 C4.66 6 5.32 6 6 6 C11.05508026 12.68200264 14.73167582 20.16900118 17.9375 27.875 C18.37872192 28.92578735 18.37872192 28.92578735 18.82885742 29.99780273 C20.57153938 34.3506327 21.51884518 38.33462546 22 43 C21.01 43.495 21.01 43.495 20 44 C19.7525 43.113125 19.505 42.22625 19.25 41.3125 C17.95467171 37.87988002 16.37603087 35.75926166 14 33 C13.67 32.34 13.34 31.68 13 31 C13.66 31 14.32 31 15 31 C12.78184988 23.89056545 12.78184988 23.89056545 10 17 C9.34 16.67 8.68 16.34 8 16 C8 14.68 8 13.36 8 12 C6.02 12 4.04 12 2 12 C0.17962213 7.67660257 0 4.64769655 0 0 Z " fill="#42C1B2" transform="translate(371,260)"/>
<path d="M0 0 C5.94 0 11.88 0 18 0 C18 0.66 18 1.32 18 2 C19.65 2 21.3 2 23 2 C23.33 2.66 23.66 3.32 24 4 C27.32539632 5.10846544 29.84774974 5.14477295 33.3515625 5.17358398 C34.66302246 5.18707382 35.97448242 5.20056366 37.32568359 5.21446228 C38.02618835 5.21952223 38.72669312 5.22458218 39.44842529 5.22979546 C41.64229683 5.24622327 43.83599828 5.2694602 46.02978516 5.29469299 C52.26651527 5.36543052 58.50331338 5.42565269 64.74023438 5.47680664 C68.55633301 5.5085824 72.37223327 5.54984951 76.18817139 5.59700203 C77.64260293 5.61302512 79.09708012 5.62534529 80.55157471 5.63390923 C82.58393492 5.64605122 84.61620464 5.67123311 86.6484375 5.69702148 C87.80520996 5.70732895 88.96198242 5.71763641 90.15380859 5.72825623 C93 6 93 6 96 8 C87.08991035 8.06955955 78.17991441 8.12284139 69.26961231 8.15543652 C65.13203644 8.17108182 60.99464657 8.19229917 56.85717773 8.22631836 C52.86308149 8.25895259 48.86916398 8.27686156 44.87494469 8.28463173 C43.35232416 8.29016797 41.82971325 8.300979 40.30716896 8.31719017 C38.1717693 8.33901914 36.0371049 8.34196474 33.90161133 8.34057617 C32.07959953 8.35056892 32.07959953 8.35056892 30.22077942 8.36076355 C26.6884077 7.96509815 24.89318122 6.99744547 22 5 C17.26350465 3.10274836 12.65369636 2.42970249 7.625 1.875 C6.88894531 1.78863281 6.15289062 1.70226562 5.39453125 1.61328125 C3.59700818 1.40318115 1.79858658 1.20079233 0 1 C0 0.67 0 0.34 0 0 Z " fill="#DA4E9B" transform="translate(180,211)"/>
<path d="M0 0 C0.33 0 0.66 0 1 0 C4.64060683 15.4982643 5.18869407 30.77153819 5.1875 46.625 C5.18840637 47.41476227 5.18931274 48.20452454 5.19024658 49.01821899 C5.18920255 57.06510373 5.14172831 65.01703564 4 73 C3.67 73 3.34 73 3 73 C3.01047363 71.94312988 3.02094727 70.88625977 3.03173828 69.79736328 C3.06861921 65.78275091 3.09114133 61.76815258 3.10986328 57.75341797 C3.11976899 56.03334007 3.13329725 54.31327828 3.15087891 52.59326172 C4.18358455 33.32114518 4.18358455 33.32114518 0 15 C-0.0716735 12.44842345 -0.09308442 9.92527029 -0.0625 7.375 C-0.05798828 6.66859375 -0.05347656 5.9621875 -0.04882812 5.234375 C-0.03703875 3.48954725 -0.01910324 1.744763 0 0 Z " fill="#6ECAC1" transform="translate(395,310)"/>
<path d="M0 0 C0.99 0 1.98 0 3 0 C3 1.98 3 3.96 3 6 C26.43 6 49.86 6 74 6 C74.33 5.34 74.66 4.68 75 4 C75 4.99 75 5.98 75 7 C50.91 7 26.82 7 2 7 C0 3 0 3 0 0 Z " fill="#DD8EB5" transform="translate(264,352)"/>
<path d="M0 0 C0.99 0.33 1.98 0.66 3 1 C2.06035414 7.76782904 -2.14075885 12.55918438 -7.2421875 16.9140625 C-9.13028641 18.33181649 -11.03177719 19.69637191 -13 21 C-13 19.68 -13 18.36 -13 17 C-12.01 17 -11.02 17 -10 17 C-9.67 15.35 -9.34 13.7 -9 12 C-8.34 12.33 -7.68 12.66 -7 13 C-6.896875 12.360625 -6.79375 11.72125 -6.6875 11.0625 C-6.460625 10.381875 -6.23375 9.70125 -6 9 C-5.01 8.67 -4.02 8.34 -3 8 C-3 7.01 -3 6.02 -3 5 C-1.68 5 -0.36 5 1 5 C0.67 3.35 0.34 1.7 0 0 Z " fill="#E26DA5" transform="translate(307,144)"/>
<path d="M0 0 C0.33 0 0.66 0 1 0 C1.86157157 11.84660903 -1.9840616 23.9561694 -6 35 C-7.42090531 31.147344 -6.59231818 28.17802583 -5.6875 24.25 C-5.26210938 22.38021484 -5.26210938 22.38021484 -4.828125 20.47265625 C-3.91417599 16.64010594 -2.97081134 12.81852461 -2 9 C-1.31582378 6.00377999 -0.6534437 3.00306042 0 0 Z " fill="#70CBC1" transform="translate(397,383)"/>
<path d="M0 0 C2.31 0 4.62 0 7 0 C1.82688975 5.912126 -7.6803627 8.60448234 -15 11 C-15.66 10.67 -16.32 10.34 -17 10 C-16.34 9.34 -15.68 8.68 -15 8 C-14.01 8 -13.02 8 -12 8 C-12 7.34 -12 6.68 -12 6 C-10.35 6 -8.7 6 -7 6 C-7 5.34 -7 4.68 -7 4 C-5.68 4 -4.36 4 -3 4 C-3 3.34 -3 2.68 -3 2 C-2.01 2 -1.02 2 0 2 C0 1.34 0 0.68 0 0 Z " fill="#E57EB1" transform="translate(275,173)"/>
<path d="M0 0 C3 1 3 1 4.3515625 3.4765625 C6.58806835 9.00608311 8.59249759 14.02329801 9 20 C8.34 20.33 7.68 20.66 7 21 C6.7525 20.113125 6.505 19.22625 6.25 18.3125 C4.95467171 14.87988002 3.37603087 12.75926166 1 10 C0.67 9.34 0.34 8.68 0 8 C0.66 8 1.32 8 2 8 C1.34 5.36 0.68 2.72 0 0 Z " fill="#3ABDAD" transform="translate(384,283)"/>
<path d="M0 0 C2.96739205 0.60787354 5.92236386 1.26177542 8.875 1.9375 C9.99962646 2.19200928 9.99962646 2.19200928 11.14697266 2.45166016 C14.57726098 3.26750832 17.03766746 4.02511164 20 6 C16.78950123 6.15288089 14.31016506 6.10573809 11.25 5.0625 C7.49550788 3.83506989 3.99737162 3.53343977 0.07421875 3.24609375 C-2 3 -2 3 -3 2 C-4.51469448 1.76807135 -6.03754562 1.58784762 -7.5625 1.4375 C-8.38878906 1.35371094 -9.21507812 1.26992187 -10.06640625 1.18359375 C-10.70449219 1.12300781 -11.34257812 1.06242188 -12 1 C-7.82233517 -1.78510989 -4.71627799 -0.86139274 0 0 Z " fill="#66C8BF" transform="translate(303,222)"/>
<path d="M0 0 C5.94 0 11.88 0 18 0 C18 0.66 18 1.32 18 2 C19.65 2 21.3 2 23 2 C23.33 2.66 23.66 3.32 24 4 C26.3140622 4.73075648 28.64828869 5.40138258 31 6 C29.3125 7.1875 29.3125 7.1875 27 8 C24.625 6.75 24.625 6.75 22 5 C17.24793345 3.13010399 12.65737052 2.43010778 7.625 1.875 C6.88894531 1.78863281 6.15289062 1.70226562 5.39453125 1.61328125 C3.59700818 1.40318115 1.79858658 1.20079233 0 1 C0 0.67 0 0.34 0 0 Z " fill="#E38CB7" transform="translate(180,211)"/>
<path d="M0 0 C10.37924288 -0.87918293 20.48418071 1.97616784 30 6 C30 6.33 30 6.66 30 7 C25.19465795 6.71960781 21.01148792 6.44137655 16.5625 4.5 C12.39430536 2.74497068 8.83585111 2.5125284 4.35546875 2.30859375 C2 2 2 2 0 0 Z " fill="#DF76A9" transform="translate(239,7)"/>
<path d="M0 0 C2.4375 1.5625 2.4375 1.5625 5 4 C5.625 7.125 5.625 7.125 6 11 C6.76339005 13.5804174 7.60284145 16.12295561 8.4765625 18.66796875 C9.05043064 21.2246798 8.71063617 22.52645203 8 25 C6.66165014 21.21008507 5.33017337 17.41779164 4 13.625 C3.6184375 12.54476563 3.236875 11.46453125 2.84375 10.3515625 C2.4828125 9.3203125 2.121875 8.2890625 1.75 7.2265625 C1.41484375 6.27346191 1.0796875 5.32036133 0.734375 4.33837891 C0 2 0 2 0 0 Z " fill="#E387B7" transform="translate(239,277)"/>
<path d="M0 0 C0.66 0 1.32 0 2 0 C2.33 0.99 2.66 1.98 3 3 C3.70125 3.495 4.4025 3.99 5.125 4.5 C7.90457724 8.20610299 6.9407962 11.29231707 6.359375 15.734375 C6.24078125 16.48203125 6.1221875 17.2296875 6 18 C3.05476012 12.37726933 1.01158247 6.2718113 0 0 Z " fill="#E373AA" transform="translate(256,328)"/>
<path d="M0 0 C0.99 0.66 1.98 1.32 3 2 C1.68 3.65 0.36 5.3 -1 7 C-1 6.34 -1 5.68 -1 5 C-2.010625 5.66 -3.02125 6.32 -4.0625 7 C-7.78062891 9.15499716 -10.68915491 9.35190572 -15 9 C-12.92156354 6.92156354 -11.90302246 6.5076746 -9.1875 5.625 C-5.52700074 4.32482267 -2.90230988 2.63021833 0 0 Z " fill="#E473A9" transform="translate(238,144)"/>
<path d="M0 0 C1.32 0.33 2.64 0.66 4 1 C1.60835832 2.32066755 -0.78780216 3.63161792 -3.1875 4.9375 C-3.86103516 5.31068359 -4.53457031 5.68386719 -5.22851562 6.06835938 C-8.80620758 8.00554868 -11.8986345 9.49827956 -16 10 C-16 8 -16 8 -14 6 C-11.375 5.875 -11.375 5.875 -9 6 C-9 5.34 -9 4.68 -9 4 C-7.68 4 -6.36 4 -5 4 C-5 3.34 -5 2.68 -5 2 C-3.35 2 -1.7 2 0 2 C0 1.34 0 0.68 0 0 Z " fill="#69CCC1" transform="translate(341,473)"/>
<path d="M0 0 C1.5 1.375 1.5 1.375 3 3 C3 3.66 3 4.32 3 5 C-7.56 5 -18.12 5 -29 5 C-29 4.67 -29 4.34 -29 4 C-19.43 4 -9.86 4 0 4 C0 2.68 0 1.36 0 0 Z " fill="#AF76A3" transform="translate(287,215)"/>
<path d="M0 0 C0.66 0 1.32 0 2 0 C0.34643078 3.58273331 -1.67980703 6.80973467 -4 10 C-4.66 10 -5.32 10 -6 10 C-6 11.32 -6 12.64 -6 14 C-6.99 13.67 -7.98 13.34 -9 13 C-8.43333454 11.53510951 -7.84595772 10.07821997 -7.25 8.625 C-6.92515625 7.81289063 -6.6003125 7.00078125 -6.265625 6.1640625 C-4.78735754 3.63640764 -3.62851199 3.14329586 -1 2 C-0.67 1.34 -0.34 0.68 0 0 Z " fill="#3DBEAF" transform="translate(341,397)"/>
<path d="M0 0 C7.26 0.33 14.52 0.66 22 1 C22 1.33 22 1.66 22 2 C15.73 2 9.46 2 3 2 C3.66 3.98 4.32 5.96 5 8 C4.01 9.485 4.01 9.485 3 11 C2.01 7.37 1.02 3.74 0 0 Z " fill="#D677AB" transform="translate(235,265)"/>
<path d="M0 0 C5.17930997 1.24303439 8.70166639 2.85487785 13 6 C12.34 6.66 11.68 7.32 11 8 C6.51400257 6.74809374 3.40652872 5.20614467 0 2 C0 1.34 0 0.68 0 0 Z " fill="#E173A9" transform="translate(269,14)"/>
<path d="M0 0 C0.66 0 1.32 0 2 0 C2.99 3.63 3.98 7.26 5 11 C4.01 11.33 3.02 11.66 2 12 C1.34 11.67 0.68 11.34 0 11 C0.33 9.02 0.66 7.04 1 5 C0.34 5 -0.32 5 -1 5 C-0.67 3.35 -0.34 1.7 0 0 Z " fill="#E670A9" transform="translate(329,332)"/>
<path d="M0 0 C1.98 0 3.96 0 6 0 C2.59287819 3.97497544 -1.32760855 5.86793788 -6 8 C-6 7.34 -6 6.68 -6 6 C-5.34 6 -4.68 6 -4 6 C-4 5.34 -4 4.68 -4 4 C-4.99 3.67 -5.98 3.34 -7 3 C-1.25 1.875 -1.25 1.875 1 3 C0.67 2.01 0.34 1.02 0 0 Z " fill="#49C2B6" transform="translate(351,465)"/>
<path d="M0 0 C0.66 0 1.32 0 2 0 C2.28875 1.03125 2.5775 2.0625 2.875 3.125 C3.55274989 5.52132996 4.29460242 7.83470686 5.125 10.1875 C6 13 6 13 6 17 C5.34 17 4.68 17 4 17 C3.67 15.02 3.34 13.04 3 11 C2.34 11 1.68 11 1 11 C0.67 7.37 0.34 3.74 0 0 Z " fill="#E390B9" transform="translate(312,279)"/>
<path d="M0 0 C6.89508906 0.55906128 12.9052891 3.95264455 19 7 C18.67 7.66 18.34 8.32 18 9 C16.68 8.67 15.36 8.34 14 8 C14 7.34 14 6.68 14 6 C13.360625 5.9175 12.72125 5.835 12.0625 5.75 C7.79458483 4.70479628 3.96892333 2.85908174 0 1 C0 0.67 0 0.34 0 0 Z " fill="#A8699D" transform="translate(292,269)"/>
<path d="M0 0 C1.5 1.375 1.5 1.375 3 3 C3 3.66 3 4.32 3 5 C3.66 5 4.32 5 5 5 C5.39222105 6.41199578 5.76311059 7.82992764 6.125 9.25 C6.33382812 10.03890625 6.54265625 10.8278125 6.7578125 11.640625 C7.04314411 14.4203071 6.44977894 15.65887549 5 18 C4.16320723 15.37605694 3.33043058 12.75095616 2.5 10.125 C2.26152344 9.37863281 2.02304688 8.63226563 1.77734375 7.86328125 C0 2.2265625 0 2.2265625 0 0 Z " fill="#E584B5" transform="translate(248,304)"/>
<path d="M0 0 C5.82923987 2.65895152 10.32891147 5.6208545 15 10 C14.34 10.66 13.68 11.32 13 12 C13 11.34 13 10.68 13 10 C11.35 9.67 9.7 9.34 8 9 C7.67 7.68 7.34 6.36 7 5 C6.01 5 5.02 5 4 5 C4 4.34 4 3.68 4 3 C2.68 3 1.36 3 0 3 C0 2.01 0 1.02 0 0 Z " fill="#E58EB8" transform="translate(261,190)"/>
<path d="M0 0 C1.32 0.66 2.64 1.32 4 2 C3.01 2.495 3.01 2.495 2 3 C1.71125 3.639375 1.4225 4.27875 1.125 4.9375 C-0.22909764 7.42001234 -1.42178493 7.96871397 -4 9 C-4 7.68 -4 6.36 -4 5 C-3.34 4.67 -2.68 4.34 -2 4 C-2 3.34 -2 2.68 -2 2 C-1.34 2 -0.68 2 0 2 C0 1.34 0 0.68 0 0 Z " fill="#4CC2B4" transform="translate(366,451)"/>
<path d="M0 0 C2.8125 0.1875 2.8125 0.1875 6 1 C7.75 3.5 7.75 3.5 9 6 C9.66 6.33 10.32 6.66 11 7 C10.67 8.32 10.34 9.64 10 11 C9.67 10.01 9.34 9.02 9 8 C8.34 8 7.68 8 7 8 C4.26602464 5.47107279 2.06936578 3.10404867 0 0 Z " fill="#65C7BB" transform="translate(315,280)"/>
<path d="M0 0 C2.31 0.33 4.62 0.66 7 1 C7.33 1.99 7.66 2.98 8 4 C8.66 4 9.32 4 10 4 C10.12375 4.639375 10.2475 5.27875 10.375 5.9375 C10.58125 6.618125 10.7875 7.29875 11 8 C11.66 8.33 12.32 8.66 13 9 C10 9 10 9 7.625 6.75 C6.75875 5.8425 5.8925 4.935 5 4 C3.35135455 2.64444707 1.68996005 1.30368347 0 0 Z " fill="#E68CB8" transform="translate(232,67)"/>
<path d="M0 0 C3.11547441 0.67883043 5.85137721 1.74106902 8.75 3.0625 C9.54921875 3.42472656 10.3484375 3.78695312 11.171875 4.16015625 C11.77515625 4.43730469 12.3784375 4.71445313 13 5 C13 5.33 13 5.66 13 6 C9.7 5.67 6.4 5.34 3 5 C2.67 3.68 2.34 2.36 2 1 C1.34 0.67 0.68 0.34 0 0 Z " fill="#61CABE" transform="translate(326,229)"/>
<path d="M0 0 C-1.375 2 -1.375 2 -4 4 C-7.3580469 4.35791096 -10.63536357 4.23115823 -14 4 C-11.68516093 1.68516093 -10.10977477 1.2391044 -7 0.3125 C-6.113125 0.04050781 -5.22625 -0.23148437 -4.3125 -0.51171875 C-2 -1 -2 -1 0 0 Z " fill="#64CBBD" transform="translate(301,440)"/>
<path d="M0 0 C3.39417765 3.12621626 5.6062718 5.56541027 7 10 C4.36 9.67 1.72 9.34 -1 9 C-0.67 8.34 -0.34 7.68 0 7 C0.66 7 1.32 7 2 7 C1.67 6.401875 1.34 5.80375 1 5.1875 C0 3 0 3 0 0 Z " fill="#E476B1" transform="translate(280,205)"/>
<path d="M0 0 C0.97748402 3.04106139 1.29779422 5.03361322 0 8 C-2.5625 10.25 -2.5625 10.25 -5 12 C-5.66 11.67 -6.32 11.34 -7 11 C-6.66226563 10.54109375 -6.32453125 10.0821875 -5.9765625 9.609375 C-2.63691049 5.01807574 -2.63691049 5.01807574 0 0 Z " fill="#E586B8" transform="translate(249,129)"/>
<path d="M0 0 C0.66 0.66 1.32 1.32 2 2 C1.828125 4.49609375 1.828125 4.49609375 1.25 7.4375 C0.97929687 8.88962891 0.97929687 8.88962891 0.703125 10.37109375 C0 13 0 13 -2 16 C-3.3805087 12.23331402 -2.59568159 9.55210827 -1.5625 5.75 C-1.27503906 4.67234375 -0.98757813 3.5946875 -0.69140625 2.484375 C-0.46324219 1.66453125 -0.23507812 0.8446875 0 0 Z " fill="#E78DB8" transform="translate(319,117)"/>
<path d="M0 0 C4.43458973 1.3937282 6.87378374 3.60582235 10 7 C9.01 7.495 9.01 7.495 8 8 C8 7.34 8 6.68 8 6 C7.05125 5.938125 6.1025 5.87625 5.125 5.8125 C3.578125 5.4103125 3.578125 5.4103125 2 5 C0.625 2.4375 0.625 2.4375 0 0 Z " fill="#E581B1" transform="translate(282,21)"/>
<path d="M0 0 C6.15234375 0.5859375 6.15234375 0.5859375 8 1 C8.33 1.66 8.66 2.32 9 3 C4.73383684 4.13764351 1.43513689 5 -3 5 C-3 4.34 -3 3.68 -3 3 C-2.01 2.67 -1.02 2.34 0 2 C0 1.34 0 0.68 0 0 Z " fill="#52C0B3" transform="translate(306,484)"/>
<path d="M0 0 C0.66 0 1.32 0 2 0 C2.50367757 1.45706726 3.00282556 2.91570096 3.5 4.375 C3.91765625 5.59316406 3.91765625 5.59316406 4.34375 6.8359375 C5 9 5 9 5 11 C4.01 11 3.02 11 2 11 C2 9.35 2 7.7 2 6 C1.34 6 0.68 6 0 6 C0 4.02 0 2.04 0 0 Z " fill="#E37BAC" transform="translate(323,314)"/>
<path d="M0 0 C2.78752362 1.39376181 3.30431115 3.17508558 4.6875 5.9375 C5.14511719 6.83339844 5.60273438 7.72929687 6.07421875 8.65234375 C6.37972656 9.42707031 6.68523437 10.20179688 7 11 C6.67 11.66 6.34 12.32 6 13 C3.4429149 10.77644774 2.75829088 9.24981807 2 6 C1.34 5.67 0.68 5.34 0 5 C0 3.35 0 1.7 0 0 Z " fill="#74CBC4" transform="translate(379,271)"/>
<path d="M0 0 C0.66 0.99 1.32 1.98 2 3 C1.34 3 0.68 3 0 3 C-0.66 4.32 -1.32 5.64 -2 7 C-3.98 7 -5.96 7 -8 7 C-5.53058944 4.40062046 -2.81939117 2.20979308 0 0 Z " fill="#57C9BC" transform="translate(319,427)"/>
<path d="M0 0 C0.99 0.33 1.98 0.66 3 1 C3 4.63 3 8.26 3 12 C0.8008587 7.60171741 0.48144941 4.81449408 0 0 Z " fill="#65CDC0" transform="translate(338,314)"/>
<path d="M0 0 C2.31 0 4.62 0 7 0 C4.87330165 2.33936818 2.93775144 3.80653848 0 5 C-0.99 5 -1.98 5 -3 5 C-3 4.01 -3 3.02 -3 2 C-2.01 2 -1.02 2 0 2 C0 1.34 0 0.68 0 0 Z " fill="#E277AA" transform="translate(275,173)"/>
<path d="M0 0 C3.3 1.65 6.6 3.3 10 5 C5.75492899 6.06126775 4.68024779 6.08878929 1 4 C0.67 2.68 0.34 1.36 0 0 Z " fill="#7AD0C4" transform="translate(340,235)"/>
<path d="M0 0 C0.99 0.99 1.98 1.98 3 3 C0.69 4.98 -1.62 6.96 -4 9 C-4 7.68 -4 6.36 -4 5 C-3.01 5 -2.02 5 -1 5 C-0.67 3.35 -0.34 1.7 0 0 Z " fill="#E36AA3" transform="translate(298,156)"/>
<path d="M0 0 C4.875 3.625 4.875 3.625 6 7 C5.01 8.485 5.01 8.485 4 10 C4 9.01 4 8.02 4 7 C3.34 7 2.68 7 2 7 C1.34 4.69 0.68 2.38 0 0 Z " fill="#E57BAE" transform="translate(239,277)"/>
<path d="M0 0 C3.3 0 6.6 0 10 0 C6.39338934 1.80330533 3.91606575 2.46599103 0 3 C0 2.01 0 1.02 0 0 Z " fill="#6BCEC0" transform="translate(315,483)"/>
<path d="M0 0 C0.66 0 1.32 0 2 0 C1.46930939 3.82097239 0.50298434 6.06171403 -2 9 C-2 7.02 -2 5.04 -2 3 C-1.34 3 -0.68 3 0 3 C0 2.01 0 1.02 0 0 Z " fill="#69C5BA" transform="translate(381,432)"/>
<path d="M0 0 C4.26086957 6.39130435 4.26086957 6.39130435 3.625 10.3125 C3.41875 10.869375 3.2125 11.42625 3 12 C0.50494038 9.50494038 0.64051624 8.32671112 0.375 4.875 C0.30023438 3.96492188 0.22546875 3.05484375 0.1484375 2.1171875 C0.09945313 1.41851562 0.05046875 0.71984375 0 0 Z " fill="#E183B3" transform="translate(334,344)"/>
<path d="M0 0 C0.99 0 1.98 0 3 0 C3.66 2.31 4.32 4.62 5 7 C4.34 7.66 3.68 8.32 3 9 C2.01 6.03 1.02 3.06 0 0 Z " fill="#6BCBBF" transform="translate(332,300)"/>
<path d="M0 0 C0.33 0 0.66 0 1 0 C1.36923077 7.50769231 1.36923077 7.50769231 -0.5 10 C-0.995 10.33 -1.49 10.66 -2 11 C-1 3.57142857 -1 3.57142857 0 0 Z " fill="#67C9BD" transform="translate(339,390)"/>
<path d="M0 0 C2.4375 0.625 2.4375 0.625 5 2 C5.8125 5.125 5.8125 5.125 6 8 C3.33264727 5.51047079 1.44253657 3.36591866 0 0 Z " fill="#59C6B8" transform="translate(326,291)"/>
<path d="M0 0 C0.99 0.33 1.98 0.66 3 1 C4.1875 4.5625 4.1875 4.5625 5 8 C4.01 8.495 4.01 8.495 3 9 C2.01 6.03 1.02 3.06 0 0 Z " fill="#58C1B5" transform="translate(384,283)"/>
<path d="M0 0 C0 0.66 0 1.32 0 2 C-4.625 4.125 -4.625 4.125 -8 3 C-4.93882432 0.37613513 -4.26826873 0 0 0 Z " fill="#DD5092" transform="translate(224,153)"/>
<path d="M0 0 C-1.29299694 2.88437779 -2.65941363 4.87219421 -5 7 C-5 5.02 -5 3.04 -5 1 C-2 0 -2 0 0 0 Z " fill="#E27FB2" transform="translate(306,152)"/>
<path d="M0 0 C1.98 1.65 3.96 3.3 6 5 C3.50907189 6.24546405 2.58919267 5.7767578 0 5 C0 3.35 0 1.7 0 0 Z " fill="#49C0B3" transform="translate(363,252)"/>
<path d="M0 0 C0.99 0 1.98 0 3 0 C2.67 3.3 2.34 6.6 2 10 C1.67 10 1.34 10 1 10 C0.67 6.7 0.34 3.4 0 0 Z " fill="#EDA0C5" transform="translate(250,89)"/>
<path d="M0 0 C1.45922693 0.11409593 2.91740598 0.24165544 4.375 0.375 C5.59316406 0.47941406 5.59316406 0.47941406 6.8359375 0.5859375 C9 1 9 1 11 3 C7.59068103 4.13643966 6.99664544 3.86747764 3.8125 2.5625 C3.09707031 2.27503906 2.38164062 1.98757813 1.64453125 1.69140625 C1.10183594 1.46324219 0.55914062 1.23507812 0 1 C0 0.67 0 0.34 0 0 Z " fill="#E793BD" transform="translate(249,8)"/>
</svg>
