<svg width="178" height="104" viewBox="0 0 178 104" fill="none" xmlns="http://www.w3.org/2000/svg">
<g filter="url(#filter0_d_2_11)">
<mask id="path-1-outside-1_2_11" maskUnits="userSpaceOnUse" x="3.33144" y="-0.357158" width="171.597" height="95.9527" fill="black">
<rect fill="white" x="3.33144" y="-0.357158" width="171.597" height="95.9527"/>
<path d="M44.211 3.60045L68.7832 3.17154C73.5656 3.3441 77.5405 3.70145 80.7077 4.24359C86.701 5.33383 90.9638 7.5211 93.4962 10.8054C94.4556 11.9835 95.2069 13.464 95.7501 15.2467C96.2933 17.0295 96.4121 18.9478 96.1066 21.0014C95.0744 30.3222 89.7539 38.4376 80.145 45.3477C77.449 47.3577 74.1962 49.2494 70.3866 51.0228L68.7362 51.8198L69.394 52.8324C70.7964 54.9416 72.8774 59.258 75.637 65.7815C78.5791 72.9845 80.9654 77.6796 82.7959 79.8667C84.0201 81.5522 85.4458 82.5515 87.0728 82.8645C89.4693 83.2494 91.8897 82.567 94.3342 80.8174C95.5138 79.9434 96.6463 78.8141 97.7316 77.4296C99.1538 75.7832 100.498 74.5649 101.764 73.7747C104.046 72.4547 106.125 71.7783 108.002 71.7455C108.855 71.7306 109.411 71.8063 109.67 71.9724C111.739 73.1312 110.593 75.925 106.232 80.3537C99.5255 87.2985 91.8313 91.4441 83.1495 92.7905C81.7873 92.9849 80.4664 93.0933 79.1865 93.1157C77.3948 93.147 75.8965 92.8744 74.6916 92.298C72.1111 91.1482 69.8107 88.9267 67.7902 85.6334C66.123 83.0168 64.173 78.8689 61.9402 73.1896C59.3542 66.8338 57.2305 62.5182 55.5692 60.2429C54.1684 58.219 52.9515 56.96 51.9188 56.466C50.6315 56.0617 49.7319 55.8641 49.22 55.873C48.3668 55.8879 47.7195 55.4725 47.278 54.6267C46.8305 53.4397 47.4451 51.978 49.1217 50.2419C50.2954 49.0265 51.7279 47.9774 53.4194 47.0944C55.1124 46.2967 56.982 45.8373 59.0282 45.7163C63.4604 45.3829 67.4968 44.3736 71.1372 42.6885C76.2133 40.1248 79.601 36.1824 81.3004 30.8613C81.9472 28.8017 82.255 26.876 82.2237 25.0843C82.1924 23.2926 81.8677 21.8047 81.2496 20.6206C80.0988 18.251 77.5925 16.4598 73.7307 15.247C69.0113 13.7932 62.1723 13.1444 53.2136 13.3008C51.6779 13.3276 50.9115 13.4263 50.9144 13.597L50.4651 17.1894C48.3512 37.8801 43.3372 58.6641 35.423 79.5414C33.3044 85.2966 31.7833 88.609 30.8597 89.4785C30.692 89.6522 30.4825 89.8692 30.231 90.1296C27.4601 92.7384 24.5389 94.0696 21.4673 94.1232C20.7848 94.1351 20.2706 94.016 19.9249 93.766C19.2349 93.3514 18.8839 92.8027 18.872 92.1202C18.8675 91.8642 19.0696 91.2206 19.4784 90.1893C21.3588 85.4624 22.9084 81.3387 24.1272 77.8183C30.0592 60.7308 34.0318 43.8482 36.0451 27.1706C37.1774 18.7015 37.6112 14.2132 37.3463 13.7058C37.0873 13.5396 35.3847 13.7827 32.2382 14.4351C27.4737 15.2863 24.0413 16.6691 21.9411 18.5834C20.5998 19.9724 19.6064 21.7393 18.9611 23.8842C18.5539 25.0008 17.9333 26.1212 17.0995 27.2452C14.0741 29.9438 10.858 31.4935 7.45116 31.8943C6.34199 31.9137 5.61007 31.5424 5.25538 30.7805C4.99049 30.273 5.05868 29.2903 5.45996 27.8324C7.07999 22.8541 10.247 18.4888 14.9609 14.7366C22.7031 8.45656 32.4531 4.7445 44.211 3.60045ZM115.58 2.3547L136.953 1.98163C146.178 2.41804 153.854 4.54574 159.98 8.36474C168.266 13.6823 172.372 21.5905 172.3 32.0893C172.166 39.0901 170.49 45.7337 167.271 52.0201C163.642 59.2526 158.208 65.7484 150.968 71.5076C139.101 81.0175 125.548 86.887 110.309 89.1159C109.883 89.1233 109.457 89.1735 109.032 89.2662C105.881 89.6626 101.021 89.9181 94.4511 90.0328L85.4924 90.1892L84.9738 89.8142C83.9381 89.1495 83.7488 88.086 84.406 86.6236C84.8971 85.4202 86.0693 84.1195 87.9225 82.7216C89.7787 81.4944 91.3871 80.7409 92.7478 80.4611L93.8929 80.057L94.1332 79.1567C102.128 58.0219 106.923 36.9004 108.518 15.792C108.82 13.5677 108.886 12.4571 108.715 12.46L103.607 13.1893C98.8428 14.0406 95.4104 15.4234 93.3102 17.3376C91.9689 18.7266 90.9756 20.4935 90.3302 22.6385C89.923 23.7551 89.3025 24.8754 88.4686 25.9995C85.4433 28.698 82.2271 30.2477 78.8203 30.6486C77.7111 30.6679 76.9792 30.2966 76.6245 29.5347C76.3596 29.0273 76.4278 28.0446 76.8291 26.5867C78.4491 21.6083 81.6161 17.2431 86.33 13.4909C94.0722 7.2108 103.822 3.49874 115.58 2.3547ZM126.505 12.1495C125.735 12.0776 124.668 12.0536 123.303 12.0774L122.279 12.0953L122.29 12.7352L121.843 16.4555C119.713 36.2077 114.855 56.1356 107.268 76.239C106.367 78.3884 105.917 79.5058 105.919 79.5911C105.922 79.7617 106.776 79.8322 108.483 79.8024C112.919 79.7249 117.135 79.2246 121.13 78.3014C130.312 76.2635 138.057 72.5865 144.365 67.2702C146.889 65.1779 149.026 62.9215 150.776 60.5013C154.945 54.881 157.438 48.5645 158.255 41.5519C158.547 38.7304 158.498 35.9148 158.107 33.1052C157.154 27.4036 154.513 22.7983 150.185 19.2893C144.819 15.0303 136.926 12.6504 126.505 12.1495Z"/>
</mask>
<path d="M44.211 3.60045L68.7832 3.17154C73.5656 3.3441 77.5405 3.70145 80.7077 4.24359C86.701 5.33383 90.9638 7.5211 93.4962 10.8054C94.4556 11.9835 95.2069 13.464 95.7501 15.2467C96.2933 17.0295 96.4121 18.9478 96.1066 21.0014C95.0744 30.3222 89.7539 38.4376 80.145 45.3477C77.449 47.3577 74.1962 49.2494 70.3866 51.0228L68.7362 51.8198L69.394 52.8324C70.7964 54.9416 72.8774 59.258 75.637 65.7815C78.5791 72.9845 80.9654 77.6796 82.7959 79.8667C84.0201 81.5522 85.4458 82.5515 87.0728 82.8645C89.4693 83.2494 91.8897 82.567 94.3342 80.8174C95.5138 79.9434 96.6463 78.8141 97.7316 77.4296C99.1538 75.7832 100.498 74.5649 101.764 73.7747C104.046 72.4547 106.125 71.7783 108.002 71.7455C108.855 71.7306 109.411 71.8063 109.67 71.9724C111.739 73.1312 110.593 75.925 106.232 80.3537C99.5255 87.2985 91.8313 91.4441 83.1495 92.7905C81.7873 92.9849 80.4664 93.0933 79.1865 93.1157C77.3948 93.147 75.8965 92.8744 74.6916 92.298C72.1111 91.1482 69.8107 88.9267 67.7902 85.6334C66.123 83.0168 64.173 78.8689 61.9402 73.1896C59.3542 66.8338 57.2305 62.5182 55.5692 60.2429C54.1684 58.219 52.9515 56.96 51.9188 56.466C50.6315 56.0617 49.7319 55.8641 49.22 55.873C48.3668 55.8879 47.7195 55.4725 47.278 54.6267C46.8305 53.4397 47.4451 51.978 49.1217 50.2419C50.2954 49.0265 51.7279 47.9774 53.4194 47.0944C55.1124 46.2967 56.982 45.8373 59.0282 45.7163C63.4604 45.3829 67.4968 44.3736 71.1372 42.6885C76.2133 40.1248 79.601 36.1824 81.3004 30.8613C81.9472 28.8017 82.255 26.876 82.2237 25.0843C82.1924 23.2926 81.8677 21.8047 81.2496 20.6206C80.0988 18.251 77.5925 16.4598 73.7307 15.247C69.0113 13.7932 62.1723 13.1444 53.2136 13.3008C51.6779 13.3276 50.9115 13.4263 50.9144 13.597L50.4651 17.1894C48.3512 37.8801 43.3372 58.6641 35.423 79.5414C33.3044 85.2966 31.7833 88.609 30.8597 89.4785C30.692 89.6522 30.4825 89.8692 30.231 90.1296C27.4601 92.7384 24.5389 94.0696 21.4673 94.1232C20.7848 94.1351 20.2706 94.016 19.9249 93.766C19.2349 93.3514 18.8839 92.8027 18.872 92.1202C18.8675 91.8642 19.0696 91.2206 19.4784 90.1893C21.3588 85.4624 22.9084 81.3387 24.1272 77.8183C30.0592 60.7308 34.0318 43.8482 36.0451 27.1706C37.1774 18.7015 37.6112 14.2132 37.3463 13.7058C37.0873 13.5396 35.3847 13.7827 32.2382 14.4351C27.4737 15.2863 24.0413 16.6691 21.9411 18.5834C20.5998 19.9724 19.6064 21.7393 18.9611 23.8842C18.5539 25.0008 17.9333 26.1212 17.0995 27.2452C14.0741 29.9438 10.858 31.4935 7.45116 31.8943C6.34199 31.9137 5.61007 31.5424 5.25538 30.7805C4.99049 30.273 5.05868 29.2903 5.45996 27.8324C7.07999 22.8541 10.247 18.4888 14.9609 14.7366C22.7031 8.45656 32.4531 4.7445 44.211 3.60045ZM115.58 2.3547L136.953 1.98163C146.178 2.41804 153.854 4.54574 159.98 8.36474C168.266 13.6823 172.372 21.5905 172.3 32.0893C172.166 39.0901 170.49 45.7337 167.271 52.0201C163.642 59.2526 158.208 65.7484 150.968 71.5076C139.101 81.0175 125.548 86.887 110.309 89.1159C109.883 89.1233 109.457 89.1735 109.032 89.2662C105.881 89.6626 101.021 89.9181 94.4511 90.0328L85.4924 90.1892L84.9738 89.8142C83.9381 89.1495 83.7488 88.086 84.406 86.6236C84.8971 85.4202 86.0693 84.1195 87.9225 82.7216C89.7787 81.4944 91.3871 80.7409 92.7478 80.4611L93.8929 80.057L94.1332 79.1567C102.128 58.0219 106.923 36.9004 108.518 15.792C108.82 13.5677 108.886 12.4571 108.715 12.46L103.607 13.1893C98.8428 14.0406 95.4104 15.4234 93.3102 17.3376C91.9689 18.7266 90.9756 20.4935 90.3302 22.6385C89.923 23.7551 89.3025 24.8754 88.4686 25.9995C85.4433 28.698 82.2271 30.2477 78.8203 30.6486C77.7111 30.6679 76.9792 30.2966 76.6245 29.5347C76.3596 29.0273 76.4278 28.0446 76.8291 26.5867C78.4491 21.6083 81.6161 17.2431 86.33 13.4909C94.0722 7.2108 103.822 3.49874 115.58 2.3547ZM126.505 12.1495C125.735 12.0776 124.668 12.0536 123.303 12.0774L122.279 12.0953L122.29 12.7352L121.843 16.4555C119.713 36.2077 114.855 56.1356 107.268 76.239C106.367 78.3884 105.917 79.5058 105.919 79.5911C105.922 79.7617 106.776 79.8322 108.483 79.8024C112.919 79.7249 117.135 79.2246 121.13 78.3014C130.312 76.2635 138.057 72.5865 144.365 67.2702C146.889 65.1779 149.026 62.9215 150.776 60.5013C154.945 54.881 157.438 48.5645 158.255 41.5519C158.547 38.7304 158.498 35.9148 158.107 33.1052C157.154 27.4036 154.513 22.7983 150.185 19.2893C144.819 15.0303 136.926 12.6504 126.505 12.1495Z" fill="#FF0000"/>
<path d="M44.211 3.60045L68.7832 3.17154C73.5656 3.3441 77.5405 3.70145 80.7077 4.24359C86.701 5.33383 90.9638 7.5211 93.4962 10.8054C94.4556 11.9835 95.2069 13.464 95.7501 15.2467C96.2933 17.0295 96.4121 18.9478 96.1066 21.0014C95.0744 30.3222 89.7539 38.4376 80.145 45.3477C77.449 47.3577 74.1962 49.2494 70.3866 51.0228L68.7362 51.8198L69.394 52.8324C70.7964 54.9416 72.8774 59.258 75.637 65.7815C78.5791 72.9845 80.9654 77.6796 82.7959 79.8667C84.0201 81.5522 85.4458 82.5515 87.0728 82.8645C89.4693 83.2494 91.8897 82.567 94.3342 80.8174C95.5138 79.9434 96.6463 78.8141 97.7316 77.4296C99.1538 75.7832 100.498 74.5649 101.764 73.7747C104.046 72.4547 106.125 71.7783 108.002 71.7455C108.855 71.7306 109.411 71.8063 109.67 71.9724C111.739 73.1312 110.593 75.925 106.232 80.3537C99.5255 87.2985 91.8313 91.4441 83.1495 92.7905C81.7873 92.9849 80.4664 93.0933 79.1865 93.1157C77.3948 93.147 75.8965 92.8744 74.6916 92.298C72.1111 91.1482 69.8107 88.9267 67.7902 85.6334C66.123 83.0168 64.173 78.8689 61.9402 73.1896C59.3542 66.8338 57.2305 62.5182 55.5692 60.2429C54.1684 58.219 52.9515 56.96 51.9188 56.466C50.6315 56.0617 49.7319 55.8641 49.22 55.873C48.3668 55.8879 47.7195 55.4725 47.278 54.6267C46.8305 53.4397 47.4451 51.978 49.1217 50.2419C50.2954 49.0265 51.7279 47.9774 53.4194 47.0944C55.1124 46.2967 56.982 45.8373 59.0282 45.7163C63.4604 45.3829 67.4968 44.3736 71.1372 42.6885C76.2133 40.1248 79.601 36.1824 81.3004 30.8613C81.9472 28.8017 82.255 26.876 82.2237 25.0843C82.1924 23.2926 81.8677 21.8047 81.2496 20.6206C80.0988 18.251 77.5925 16.4598 73.7307 15.247C69.0113 13.7932 62.1723 13.1444 53.2136 13.3008C51.6779 13.3276 50.9115 13.4263 50.9144 13.597L50.4651 17.1894C48.3512 37.8801 43.3372 58.6641 35.423 79.5414C33.3044 85.2966 31.7833 88.609 30.8597 89.4785C30.692 89.6522 30.4825 89.8692 30.231 90.1296C27.4601 92.7384 24.5389 94.0696 21.4673 94.1232C20.7848 94.1351 20.2706 94.016 19.9249 93.766C19.2349 93.3514 18.8839 92.8027 18.872 92.1202C18.8675 91.8642 19.0696 91.2206 19.4784 90.1893C21.3588 85.4624 22.9084 81.3387 24.1272 77.8183C30.0592 60.7308 34.0318 43.8482 36.0451 27.1706C37.1774 18.7015 37.6112 14.2132 37.3463 13.7058C37.0873 13.5396 35.3847 13.7827 32.2382 14.4351C27.4737 15.2863 24.0413 16.6691 21.9411 18.5834C20.5998 19.9724 19.6064 21.7393 18.9611 23.8842C18.5539 25.0008 17.9333 26.1212 17.0995 27.2452C14.0741 29.9438 10.858 31.4935 7.45116 31.8943C6.34199 31.9137 5.61007 31.5424 5.25538 30.7805C4.99049 30.273 5.05868 29.2903 5.45996 27.8324C7.07999 22.8541 10.247 18.4888 14.9609 14.7366C22.7031 8.45656 32.4531 4.7445 44.211 3.60045ZM115.58 2.3547L136.953 1.98163C146.178 2.41804 153.854 4.54574 159.98 8.36474C168.266 13.6823 172.372 21.5905 172.3 32.0893C172.166 39.0901 170.49 45.7337 167.271 52.0201C163.642 59.2526 158.208 65.7484 150.968 71.5076C139.101 81.0175 125.548 86.887 110.309 89.1159C109.883 89.1233 109.457 89.1735 109.032 89.2662C105.881 89.6626 101.021 89.9181 94.4511 90.0328L85.4924 90.1892L84.9738 89.8142C83.9381 89.1495 83.7488 88.086 84.406 86.6236C84.8971 85.4202 86.0693 84.1195 87.9225 82.7216C89.7787 81.4944 91.3871 80.7409 92.7478 80.4611L93.8929 80.057L94.1332 79.1567C102.128 58.0219 106.923 36.9004 108.518 15.792C108.82 13.5677 108.886 12.4571 108.715 12.46L103.607 13.1893C98.8428 14.0406 95.4104 15.4234 93.3102 17.3376C91.9689 18.7266 90.9756 20.4935 90.3302 22.6385C89.923 23.7551 89.3025 24.8754 88.4686 25.9995C85.4433 28.698 82.2271 30.2477 78.8203 30.6486C77.7111 30.6679 76.9792 30.2966 76.6245 29.5347C76.3596 29.0273 76.4278 28.0446 76.8291 26.5867C78.4491 21.6083 81.6161 17.2431 86.33 13.4909C94.0722 7.2108 103.822 3.49874 115.58 2.3547ZM126.505 12.1495C125.735 12.0776 124.668 12.0536 123.303 12.0774L122.279 12.0953L122.29 12.7352L121.843 16.4555C119.713 36.2077 114.855 56.1356 107.268 76.239C106.367 78.3884 105.917 79.5058 105.919 79.5911C105.922 79.7617 106.776 79.8322 108.483 79.8024C112.919 79.7249 117.135 79.2246 121.13 78.3014C130.312 76.2635 138.057 72.5865 144.365 67.2702C146.889 65.1779 149.026 62.9215 150.776 60.5013C154.945 54.881 157.438 48.5645 158.255 41.5519C158.547 38.7304 158.498 35.9148 158.107 33.1052C157.154 27.4036 154.513 22.7983 150.185 19.2893C144.819 15.0303 136.926 12.6504 126.505 12.1495Z" fill="black" fill-opacity="0.2"/>
<path d="M44.211 3.60045L44.1935 2.6006L44.1537 2.6013L44.1141 2.60515L44.211 3.60045ZM68.7832 3.17154L68.8193 2.17219L68.7925 2.17122L68.7658 2.17169L68.7832 3.17154ZM80.7077 4.24359L80.8867 3.25968L80.8765 3.25793L80.7077 4.24359ZM93.4962 10.8054L92.7043 11.416L92.7124 11.4265L92.7208 11.4369L93.4962 10.8054ZM95.7501 15.2467L96.7067 14.9553L96.7067 14.9553L95.7501 15.2467ZM96.1066 21.0014L95.1174 20.8542L95.1147 20.8727L95.1126 20.8913L96.1066 21.0014ZM80.145 45.3477L79.5612 44.5358L79.5542 44.5408L79.5473 44.546L80.145 45.3477ZM70.3866 51.0228L69.9646 50.1163L69.9581 50.1193L69.9517 50.1223L70.3866 51.0228ZM68.7362 51.8198L68.3014 50.9193L67.2794 51.4128L67.8976 52.3645L68.7362 51.8198ZM69.394 52.8324L68.5553 53.3772L68.5613 53.3861L69.394 52.8324ZM75.637 65.7815L76.5628 65.4033L76.5579 65.3919L75.637 65.7815ZM82.7959 79.8667L83.605 79.279L83.5848 79.2512L83.5627 79.2249L82.7959 79.8667ZM87.0728 82.8645L86.8839 83.8465L86.8991 83.8494L86.9143 83.8518L87.0728 82.8645ZM94.3342 80.8174L94.9162 81.6306L94.9229 81.6258L94.9296 81.6209L94.3342 80.8174ZM97.7316 77.4296L96.9748 76.7759L96.9593 76.794L96.9446 76.8127L97.7316 77.4296ZM101.764 73.7747L101.264 72.9091L101.249 72.9175L101.235 72.9263L101.764 73.7747ZM109.67 71.9724L109.13 72.8141L109.155 72.8302L109.181 72.8449L109.67 71.9724ZM106.232 80.3537L105.519 79.6521L105.513 79.6591L106.232 80.3537ZM83.1495 92.7905L83.2908 93.7805L83.3027 93.7787L83.1495 92.7905ZM74.6916 92.298L75.1231 91.3959L75.1109 91.3901L75.0986 91.3846L74.6916 92.298ZM67.7902 85.6334L68.6426 85.1105L68.6381 85.1032L68.6336 85.0961L67.7902 85.6334ZM61.9402 73.1896L62.8709 72.8237L62.8664 72.8128L61.9402 73.1896ZM55.5692 60.2429L54.747 60.812L54.7542 60.8224L54.7616 60.8325L55.5692 60.2429ZM51.9188 56.466L52.3503 55.5639L52.2862 55.5332L52.2184 55.5119L51.9188 56.466ZM47.278 54.6267L46.3422 54.9794L46.3635 55.0359L46.3915 55.0895L47.278 54.6267ZM49.1217 50.2419L49.8411 50.9365L49.8411 50.9365L49.1217 50.2419ZM53.4194 47.0944L52.9932 46.1897L52.9748 46.1984L52.9567 46.2079L53.4194 47.0944ZM59.0282 45.7163L59.0873 46.7145L59.0953 46.7141L59.1033 46.7135L59.0282 45.7163ZM71.1372 42.6885L71.5573 43.596L71.5728 43.5888L71.5881 43.5811L71.1372 42.6885ZM81.3004 30.8613L82.253 31.1655L82.2544 31.1609L81.3004 30.8613ZM81.2496 20.6206L80.3501 21.0575L80.3565 21.0705L80.3632 21.0834L81.2496 20.6206ZM73.7307 15.247L74.0304 14.293L74.0251 14.2914L73.7307 15.247ZM50.9144 13.597L51.9067 13.7211L51.9155 13.6506L51.9143 13.5795L50.9144 13.597ZM50.4651 17.1894L49.4728 17.0652L49.4714 17.0765L49.4703 17.0877L50.4651 17.1894ZM35.423 79.5414L34.4879 79.1869L34.4845 79.1959L35.423 79.5414ZM30.8597 89.4785L30.1742 88.7505L30.1569 88.7668L30.1404 88.7839L30.8597 89.4785ZM30.231 90.1296L30.9165 90.8577L30.9338 90.8414L30.9503 90.8243L30.231 90.1296ZM19.9249 93.766L20.5108 92.9557L20.4764 92.9308L20.44 92.9089L19.9249 93.766ZM19.4784 90.1893L18.5492 89.8196L18.5487 89.8208L19.4784 90.1893ZM24.1272 77.8183L23.1825 77.4903L23.1822 77.4911L24.1272 77.8183ZM36.0451 27.1706L35.0538 27.038L35.0523 27.0507L36.0451 27.1706ZM37.3463 13.7058L38.2328 13.243L38.1099 13.0076L37.8864 12.8642L37.3463 13.7058ZM32.2382 14.4351L32.4141 15.4195L32.4277 15.417L32.4412 15.4142L32.2382 14.4351ZM21.9411 18.5834L21.2674 17.8443L21.2439 17.8658L21.2217 17.8887L21.9411 18.5834ZM18.9611 23.8842L19.9006 24.2268L19.9104 24.1998L19.9187 24.1723L18.9611 23.8842ZM17.0995 27.2452L17.7651 27.9915L17.8416 27.9233L17.9026 27.841L17.0995 27.2452ZM7.45116 31.8943L7.46861 32.8942L7.51848 32.8933L7.56801 32.8875L7.45116 31.8943ZM5.25538 30.7805L6.16197 30.3584L6.15238 30.3378L6.14187 30.3177L5.25538 30.7805ZM5.45996 27.8324L4.50905 27.523L4.50193 27.5449L4.49582 27.5671L5.45996 27.8324ZM14.9609 14.7366L15.5837 15.5191L15.5908 15.5133L14.9609 14.7366ZM44.211 3.60045L44.2284 4.6003L68.8007 4.17139L68.7832 3.17154L68.7658 2.17169L44.1935 2.6006L44.211 3.60045ZM68.7832 3.17154L68.7472 4.17089C73.5044 4.34254 77.4312 4.6973 80.539 5.22926L80.7077 4.24359L80.8765 3.25793C77.6497 2.70561 73.6269 2.34566 68.8193 2.17219L68.7832 3.17154ZM80.7077 4.24359L80.5288 5.22744C86.3906 6.29377 90.3805 8.40223 92.7043 11.416L93.4962 10.8054L94.2881 10.1948C91.5472 6.63996 87.0114 4.37388 80.8867 3.25974L80.7077 4.24359ZM93.4962 10.8054L92.7208 11.4369C93.5821 12.4945 94.2798 13.8521 94.7935 15.5382L95.7501 15.2467L96.7067 14.9553C96.134 13.0758 95.3291 11.4726 94.2716 10.174L93.4962 10.8054ZM95.7501 15.2467L94.7935 15.5382C95.2887 17.1635 95.4037 18.9305 95.1174 20.8542L96.1066 21.0014L97.0957 21.1486C97.4205 18.965 97.2978 16.8955 96.7067 14.9553L95.7501 15.2467ZM96.1066 21.0014L95.1126 20.8913C94.1194 29.8603 89.0047 37.7447 79.5612 44.5358L80.145 45.3477L80.7289 46.1595C90.5031 39.1305 96.0294 30.784 97.1005 21.1115L96.1066 21.0014ZM80.145 45.3477L79.5473 44.546C76.9177 46.5065 73.7268 48.3649 69.9646 50.1163L70.3866 51.0228L70.8086 51.9294C74.6656 50.134 77.9803 48.2089 80.7427 46.1494L80.145 45.3477ZM70.3866 51.0228L69.9517 50.1223L68.3014 50.9193L68.7362 51.8198L69.1711 52.7203L70.8214 51.9234L70.3866 51.0228ZM68.7362 51.8198L67.8976 52.3645L68.5554 53.3772L69.394 52.8324L70.2326 52.2877L69.5749 51.2751L68.7362 51.8198ZM69.394 52.8324L68.5613 53.3861C69.9041 55.4058 71.9521 59.6374 74.716 66.1711L75.637 65.7815L76.5579 65.3919C73.8026 58.8785 71.6886 54.4774 70.2268 52.2788L69.394 52.8324ZM75.637 65.7815L74.7112 66.1596C77.6471 73.3474 80.0844 78.185 82.029 80.5085L82.7959 79.8667L83.5627 79.2249C81.8465 77.1742 79.5111 72.6217 76.5627 65.4033L75.637 65.7815ZM82.7959 79.8667L81.9868 80.4543C83.3202 82.2901 84.9479 83.4741 86.8839 83.8465L87.0728 82.8645L87.2617 81.8825C85.9437 81.629 84.7201 80.8143 83.605 79.279L82.7959 79.8667ZM87.0728 82.8645L86.9143 83.8518C89.6299 84.288 92.3115 83.4949 94.9162 81.6306L94.3342 80.8174L93.7522 80.0043C91.4679 81.6392 89.3087 82.2108 87.2314 81.8771L87.0728 82.8645ZM94.3342 80.8174L94.9296 81.6209C96.1937 80.6842 97.3886 79.4881 98.5186 78.0466L97.7316 77.4296L96.9446 76.8127C95.904 78.1402 94.834 79.2025 93.7389 80.014L94.3342 80.8174ZM97.7316 77.4296L98.4884 78.0833C99.8721 76.4814 101.142 75.3419 102.294 74.6231L101.764 73.7747L101.235 72.9263C99.8543 73.7879 98.4355 75.085 96.9748 76.7759L97.7316 77.4296ZM101.764 73.7747L102.265 74.6402C104.456 73.3728 106.367 72.7742 108.019 72.7454L108.002 71.7455L107.985 70.7457C105.883 70.7824 103.636 71.5365 101.264 72.9091L101.764 73.7747ZM108.002 71.7455L108.019 72.7454C108.418 72.7384 108.715 72.7536 108.924 72.782C109.158 72.8137 109.186 72.8502 109.13 72.8141L109.67 71.9724L110.21 71.1308C109.895 70.9285 109.516 70.8441 109.194 70.8002C108.846 70.753 108.439 70.7378 107.985 70.7457L108.002 71.7455ZM109.67 71.9724L109.181 72.8449C109.499 73.0226 109.604 73.2016 109.645 73.3753C109.695 73.5901 109.681 73.9622 109.437 74.5573C108.942 75.7634 107.685 77.4532 105.519 79.6521L106.232 80.3537L106.945 81.0553C109.14 78.8255 110.636 76.904 111.287 75.3164C111.616 74.5146 111.773 73.6942 111.593 72.9208C111.403 72.1064 110.876 71.5017 110.159 71.1L109.67 71.9724ZM106.232 80.3537L105.513 79.6591C98.9419 86.4633 91.4409 90.4927 82.9962 91.8023L83.1495 92.7905L83.3027 93.7787C92.2217 92.3955 100.109 88.1337 106.951 81.0484L106.232 80.3537ZM83.1495 92.7905L83.0081 91.8005C81.684 91.9895 80.4045 92.0943 79.1691 92.1158L79.1865 93.1157L79.204 94.1155C80.5282 94.0924 81.8906 93.9803 83.2908 93.7804L83.1495 92.7905ZM79.1865 93.1157L79.1691 92.1158C77.482 92.1453 76.1486 91.8864 75.1231 91.3959L74.6916 92.298L74.2601 93.2001C75.6445 93.8624 77.3076 94.1486 79.204 94.1155L79.1865 93.1157ZM74.6916 92.298L75.0986 91.3846C72.7592 90.3422 70.5953 88.2932 68.6426 85.1105L67.7902 85.6334L66.9379 86.1564C69.0261 89.5601 71.4631 91.9542 74.2846 93.2114L74.6916 92.298ZM67.7902 85.6334L68.6336 85.0961C67.0198 82.5634 65.098 78.4888 62.8708 72.8237L61.9402 73.1896L61.0095 73.5555C63.2479 79.2489 65.2261 83.4702 66.9469 86.1708L67.7902 85.6334ZM61.9402 73.1896L62.8664 72.8128C60.2811 66.4585 58.1183 62.0383 56.3769 59.6532L55.5692 60.2429L54.7616 60.8325C56.3427 62.9981 58.4273 67.2091 61.0139 73.5665L61.9402 73.1896ZM55.5692 60.2429L56.3915 59.6737C54.9811 57.6362 53.6383 56.18 52.3503 55.5639L51.9188 56.466L51.4872 57.3681C52.2648 57.74 53.3556 58.8018 54.747 60.812L55.5692 60.2429ZM51.9188 56.466L52.2184 55.5119C50.9435 55.1115 49.8982 54.861 49.2026 54.8731L49.22 55.873L49.2375 56.8728C49.5657 56.8671 50.3195 57.0119 51.6191 57.42L51.9188 56.466ZM49.22 55.873L49.2026 54.8731C48.9509 54.8775 48.7743 54.8206 48.6347 54.731C48.4888 54.6373 48.3238 54.4692 48.1644 54.1639L47.278 54.6267L46.3915 55.0895C46.6736 55.6299 47.0531 56.0924 47.5545 56.4142C48.0623 56.74 48.6359 56.8833 49.2375 56.8728L49.22 55.873ZM47.278 54.6267L48.2137 54.274C47.9935 53.6897 48.1886 52.6476 49.8411 50.9365L49.1217 50.2419L48.4024 49.5472C46.7015 51.3085 45.6676 53.1896 46.3422 54.9794L47.278 54.6267ZM49.1217 50.2419L49.8411 50.9365C50.9311 49.8078 52.2738 48.8205 53.8822 47.9809L53.4194 47.0944L52.9567 46.2079C51.1821 47.1343 49.6596 48.2453 48.4024 49.5472L49.1217 50.2419ZM53.4194 47.0944L53.8457 47.999C55.4128 47.2606 57.1562 46.8288 59.0873 46.7145L59.0282 45.7163L58.9692 44.718C56.8079 44.8459 54.8121 45.3328 52.9932 46.1897L53.4194 47.0944ZM59.0282 45.7163L59.1033 46.7135C63.642 46.372 67.797 45.3366 71.5573 43.596L71.1372 42.6885L70.7172 41.781C67.1965 43.4106 63.2788 44.3937 58.9532 44.7191L59.0282 45.7163ZM71.1372 42.6885L71.5881 43.5811C76.8986 40.899 80.4704 36.7473 82.253 31.1655L81.3004 30.8613L80.3478 30.5571C78.7316 35.6176 75.5279 39.3507 70.6864 41.7959L71.1372 42.6885ZM81.3004 30.8613L82.2544 31.1609C82.9271 29.0191 83.257 26.9855 83.2235 25.0669L82.2237 25.0843L81.2239 25.1018C81.2529 26.7666 80.9673 28.5843 80.3463 30.5617L81.3004 30.8613ZM82.2237 25.0843L83.2235 25.0669C83.1904 23.1705 82.8463 21.5183 82.1361 20.1579L81.2496 20.6206L80.3632 21.0834C80.8892 22.0911 81.1944 23.4147 81.2239 25.1018L82.2237 25.0843ZM81.2496 20.6206L82.1492 20.1838C80.8265 17.4604 78.0156 15.5445 74.0303 14.293L73.7307 15.247L73.4311 16.2011C77.1694 17.3751 79.3711 19.0417 80.3501 21.0575L81.2496 20.6206ZM73.7307 15.247L74.0251 14.2914C69.1539 12.7907 62.1892 12.144 53.1962 12.301L53.2136 13.3008L53.2311 14.3007C62.1553 14.1449 68.8687 14.7956 73.4363 16.2027L73.7307 15.247ZM53.2136 13.3008L53.1962 12.301C52.4199 12.3145 51.7993 12.3465 51.3593 12.4032C51.1487 12.4303 50.9209 12.4699 50.7237 12.5395C50.6303 12.5724 50.473 12.6359 50.3218 12.7578C50.1652 12.884 49.9068 13.1689 49.9146 13.6144L50.9144 13.597L51.9143 13.5795C51.9213 13.9824 51.6862 14.2268 51.577 14.3149C51.5196 14.3611 51.4703 14.3883 51.4434 14.4019C51.415 14.4161 51.3953 14.4234 51.3892 14.4255C51.3829 14.4277 51.4421 14.409 51.6148 14.3868C51.9411 14.3447 52.4716 14.3139 53.2311 14.3007L53.2136 13.3008ZM50.9144 13.597L49.9222 13.4729L49.4728 17.0652L50.4651 17.1894L51.4573 17.3135L51.9067 13.7211L50.9144 13.597ZM50.4651 17.1894L49.4703 17.0877C47.3658 37.6858 42.3735 58.385 34.4879 79.1869L35.423 79.5414L36.358 79.8959C44.3008 58.9432 49.3365 38.0743 51.4599 17.291L50.4651 17.1894ZM35.423 79.5414L34.4845 79.1959C33.4291 82.0632 32.5294 84.3026 31.7845 85.9248C31.4118 86.7363 31.0841 87.3796 30.8011 87.8637C30.5084 88.3644 30.2982 88.6337 30.1742 88.7505L30.8597 89.4785L31.5452 90.2066C31.883 89.8886 32.2093 89.4178 32.5278 88.873C32.8559 88.3116 33.2141 87.6041 33.602 86.7594C34.3782 85.0692 35.2983 82.7748 36.3614 79.8868L35.423 79.5414ZM30.8597 89.4785L30.1404 88.7839C29.9727 88.9575 29.7631 89.1745 29.5116 89.435L30.231 90.1296L30.9503 90.8243C31.2018 90.5638 31.4114 90.3468 31.579 90.1732L30.8597 89.4785ZM30.231 90.1296L29.5455 89.4015C26.9105 91.8823 24.2169 93.075 21.4499 93.1233L21.4673 94.1232L21.4848 95.123C24.8608 95.0641 28.0096 93.5945 30.9165 90.8577L30.231 90.1296ZM21.4673 94.1232L21.4499 93.1233C20.8635 93.1336 20.6039 93.023 20.5108 92.9557L19.9249 93.766L19.3389 94.5764C19.9373 95.0091 20.7061 95.1366 21.4848 95.123L21.4673 94.1232ZM19.9249 93.766L20.44 92.9089C19.9836 92.6346 19.8766 92.374 19.8718 92.1027L18.872 92.1202L17.8721 92.1376C17.8912 93.2315 18.4862 94.0681 19.4097 94.6232L19.9249 93.766ZM18.872 92.1202L19.8718 92.1027C19.8727 92.1553 19.8651 92.1566 19.8841 92.0701C19.9003 91.9961 19.9289 91.8896 19.9743 91.7451C20.0649 91.4565 20.2077 91.0631 20.408 90.5577L19.4784 90.1893L18.5487 89.8208C18.3403 90.3467 18.1777 90.7909 18.0662 91.1459C17.969 91.4553 17.8667 91.8259 17.8721 92.1376L18.872 92.1202ZM19.4784 90.1893L20.4076 90.5589C22.2917 85.8227 23.8471 81.6842 25.0722 78.1454L24.1272 77.8183L23.1822 77.4911C21.9698 80.9932 20.4259 85.1021 18.5492 89.8196L19.4784 90.1893ZM24.1272 77.8183L25.0719 78.1462C31.0255 60.9964 35.0154 44.0442 37.0379 27.2904L36.0451 27.1706L35.0523 27.0507C33.0482 43.6523 29.0929 60.4652 23.1825 77.4903L24.1272 77.8183ZM36.0451 27.1706L37.0363 27.3031C37.6029 23.0651 37.9964 19.8114 38.215 17.5488C38.3241 16.4196 38.3912 15.5221 38.4134 14.8666C38.4244 14.5405 38.425 14.2554 38.4111 14.0227C38.4041 13.9067 38.3926 13.7873 38.3725 13.6736C38.3552 13.5758 38.3199 13.41 38.2328 13.243L37.3463 13.7058L36.4598 14.1686C36.4057 14.065 36.3981 13.9937 36.403 14.0216C36.4051 14.0335 36.4104 14.0708 36.4147 14.1426C36.4233 14.2857 36.4246 14.5006 36.4145 14.799C36.3945 15.3924 36.332 16.2415 36.2243 17.3564C36.0092 19.582 35.6196 22.807 35.0539 27.038L36.0451 27.1706ZM37.3463 13.7058L37.8864 12.8642C37.645 12.7093 37.389 12.6787 37.284 12.6679C37.1407 12.6532 36.9885 12.6529 36.8422 12.6587C36.5466 12.6703 36.1722 12.7109 35.7337 12.7735C34.8511 12.8995 33.6146 13.1284 32.0352 13.4559L32.2382 14.4351L32.4412 15.4142C34.0083 15.0893 35.1963 14.8705 36.0164 14.7534C36.4293 14.6945 36.7257 14.6648 36.9206 14.6571C37.0194 14.6533 37.0673 14.6562 37.079 14.6574C37.129 14.6625 36.9828 14.6608 36.8062 14.5474L37.3463 13.7058ZM32.2382 14.4351L32.0623 13.4506C27.2277 14.3145 23.574 15.742 21.2674 17.8443L21.9411 18.5834L22.6147 19.3225C24.5086 17.5962 27.7197 16.2582 32.4141 15.4195L32.2382 14.4351ZM21.9411 18.5834L21.2217 17.8887C19.7533 19.4094 18.6874 21.3231 18.0035 23.5961L18.9611 23.8842L19.9187 24.1723C20.5255 22.1555 21.4463 20.5353 22.6604 19.2781L21.9411 18.5834ZM18.9611 23.8842L18.0216 23.5416C17.6527 24.5533 17.0827 25.5894 16.2963 26.6494L17.0995 27.2452L17.9026 27.841C18.784 26.6529 19.4551 25.4484 19.9006 24.2268L18.9611 23.8842ZM17.0995 27.2452L16.4338 26.4989C13.5332 29.0863 10.5022 30.5284 7.3343 30.9012L7.45116 31.8943L7.56801 32.8875C11.2138 32.4585 14.6151 30.8012 17.7651 27.9915L17.0995 27.2452ZM7.45116 31.8943L7.4337 30.8945C6.98741 30.9023 6.70116 30.8291 6.52273 30.7385C6.36164 30.6568 6.24725 30.5416 6.16197 30.3584L5.25538 30.7805L4.3488 31.2025C4.6182 31.7812 5.04712 32.2326 5.61795 32.5222C6.17145 32.803 6.80574 32.9057 7.46861 32.8942L7.45116 31.8943ZM5.25538 30.7805L6.14187 30.3177C6.14371 30.3212 6.12437 30.2845 6.11056 30.1799C6.09694 30.0767 6.0917 29.9303 6.10546 29.7321C6.1332 29.3323 6.23282 28.7928 6.42411 28.0978L5.45996 27.8324L4.49582 27.5671C4.28583 28.33 4.15071 29.0107 4.11026 29.5936C4.07148 30.1524 4.10951 30.7463 4.3689 31.2432L5.25538 30.7805ZM5.45996 27.8324L6.41088 28.1419C7.96149 23.3768 10.9994 19.168 15.5836 15.519L14.9609 14.7366L14.3381 13.9542C9.49456 17.8096 6.19849 22.3313 4.50905 27.523L5.45996 27.8324ZM14.9609 14.7366L15.5908 15.5133C23.1543 9.3782 32.7085 5.72437 44.3078 4.59575L44.211 3.60045L44.1141 2.60515C32.1978 3.76462 22.2519 7.53492 14.3309 13.96L14.9609 14.7366ZM115.58 2.3547L115.563 1.35485L115.523 1.35554L115.483 1.3594L115.58 2.3547ZM136.953 1.98163L137 0.982752L136.968 0.981222L136.935 0.981787L136.953 1.98163ZM159.98 8.36474L160.52 7.52306L160.509 7.51612L159.98 8.36474ZM172.3 32.0893L173.3 32.1085L173.3 32.0963L172.3 32.0893ZM167.271 52.0201L166.381 51.5644L166.377 51.5717L167.271 52.0201ZM150.968 71.5076L150.346 70.7251L150.343 70.7273L150.968 71.5076ZM110.309 89.1159L110.327 90.1158L110.391 90.1146L110.454 90.1054L110.309 89.1159ZM109.032 89.2662L109.157 90.2584L109.201 90.2528L109.245 90.2432L109.032 89.2662ZM85.4924 90.1892L84.9065 90.9995L85.1766 91.1948L85.5099 91.189L85.4924 90.1892ZM84.9738 89.8142L85.5598 89.0038L85.5373 88.9876L85.5139 88.9726L84.9738 89.8142ZM84.406 86.6236L85.3182 87.0335L85.3253 87.0176L85.3319 87.0014L84.406 86.6236ZM87.9225 82.7216L87.371 81.8875L87.3451 81.9046L87.3203 81.9233L87.9225 82.7216ZM92.7478 80.4611L92.9492 81.4406L93.0161 81.4268L93.0805 81.4041L92.7478 80.4611ZM93.8929 80.057L94.2256 81.0001L94.723 80.8245L94.8591 80.3149L93.8929 80.057ZM94.1332 79.1567L93.1979 78.8029L93.18 78.8501L93.167 78.8988L94.1332 79.1567ZM108.518 15.792L107.527 15.6572L107.523 15.6869L107.52 15.7167L108.518 15.792ZM108.715 12.46L108.698 11.4602L108.636 11.4613L108.574 11.4701L108.715 12.46ZM103.607 13.1893L103.466 12.1993L103.449 12.2018L103.431 12.2049L103.607 13.1893ZM93.3102 17.3376L92.6366 16.5986L92.613 16.6201L92.5909 16.643L93.3102 17.3376ZM90.3302 22.6385L91.2697 22.9811L91.2796 22.9541L91.2878 22.9266L90.3302 22.6385ZM88.4686 25.9995L89.1343 26.7457L89.2107 26.6775L89.2718 26.5952L88.4686 25.9995ZM78.8203 30.6486L78.8377 31.6484L78.8876 31.6475L78.9371 31.6417L78.8203 30.6486ZM76.6245 29.5347L77.5311 29.1127L77.5215 29.0921L77.511 29.072L76.6245 29.5347ZM76.8291 26.5867L75.8782 26.2772L75.8711 26.2991L75.865 26.3213L76.8291 26.5867ZM86.33 13.4909L86.9528 14.2733L86.96 14.2675L86.33 13.4909ZM126.505 12.1495L126.412 13.1452L126.434 13.1473L126.457 13.1484L126.505 12.1495ZM122.279 12.0953L122.262 11.0954L121.262 11.1129L121.279 12.1127L122.279 12.0953ZM122.29 12.7352L123.283 12.8545L123.291 12.7863L123.29 12.7177L122.29 12.7352ZM121.843 16.4555L120.85 16.3362L120.849 16.3483L121.843 16.4555ZM107.268 76.239L108.19 76.6257L108.197 76.609L108.204 76.5921L107.268 76.239ZM121.13 78.3014L120.914 77.3251L120.905 77.3271L121.13 78.3014ZM144.365 67.2702L143.727 66.5003L143.721 66.5055L144.365 67.2702ZM150.776 60.5013L149.973 59.9055L149.966 59.9154L150.776 60.5013ZM158.255 41.5519L159.248 41.6675L159.249 41.6549L158.255 41.5519ZM158.107 33.1052L159.098 32.9675L159.096 32.9539L159.094 32.9403L158.107 33.1052ZM150.185 19.2893L150.815 18.5125L150.807 18.5061L150.185 19.2893ZM115.58 2.3547L115.598 3.35455L136.97 2.98148L136.953 1.98163L136.935 0.981787L115.563 1.35485L115.58 2.3547ZM136.953 1.98163L136.906 2.98052C146.006 3.41105 153.505 5.50666 159.451 9.21335L159.98 8.36474L160.509 7.51612C154.202 3.58482 146.349 1.42503 137 0.982752L136.953 1.98163ZM159.98 8.36474L159.44 9.20634C167.415 14.3243 171.37 21.8992 171.3 32.0824L172.3 32.0893L173.3 32.0963C173.375 21.2818 169.117 13.0402 160.52 7.52313L159.98 8.36474ZM172.3 32.0893L171.3 32.0702C171.169 38.9176 169.531 45.412 166.381 51.5644L167.271 52.0201L168.161 52.4759C171.448 46.0553 173.163 39.2625 173.299 32.1084L172.3 32.0893ZM167.271 52.0201L166.377 51.5717C162.822 58.657 157.488 65.0433 150.346 70.7251L150.968 71.5076L151.591 72.2902C158.928 66.4535 164.462 59.8481 168.165 52.4686L167.271 52.0201ZM150.968 71.5076L150.343 70.7273C138.616 80.1245 125.229 85.9229 110.165 88.1264L110.309 89.1159L110.454 90.1054C125.866 87.851 139.585 81.9106 151.594 72.288L150.968 71.5076ZM110.309 89.1159L110.292 88.1161C109.798 88.1247 109.307 88.1827 108.819 88.2892L109.032 89.2662L109.245 90.2432C109.607 90.1642 109.967 90.122 110.327 90.1158L110.309 89.1159ZM109.032 89.2662L108.907 88.274C105.812 88.6634 100.997 88.9184 94.4336 89.033L94.4511 90.0328L94.4685 91.0327C101.045 90.9179 105.95 90.6619 109.157 90.2584L109.032 89.2662ZM94.4511 90.0328L94.4336 89.033L85.475 89.1893L85.4924 90.1892L85.5099 91.189L94.4685 91.0327L94.4511 90.0328ZM85.4924 90.1892L86.0784 89.3788L85.5598 89.0038L84.9738 89.8142L84.3879 90.6245L84.9065 90.9995L85.4924 90.1892ZM84.9738 89.8142L85.5139 88.9726C85.1946 88.7676 85.0784 88.5608 85.0396 88.3428C84.9934 88.0834 85.0343 87.6652 85.3182 87.0335L84.406 86.6236L83.4939 86.2137C83.1206 87.0443 82.9274 87.8891 83.0705 88.6932C83.221 89.5388 83.7173 90.196 84.4337 90.6558L84.9738 89.8142ZM84.406 86.6236L85.3319 87.0014C85.7202 86.0499 86.7178 84.8829 88.5247 83.52L87.9225 82.7216L87.3203 81.9233C85.4208 83.3561 84.074 84.7904 83.4802 86.2458L84.406 86.6236ZM87.9225 82.7216L88.474 83.5558C90.2802 82.3616 91.7659 81.6839 92.9492 81.4406L92.7478 80.4611L92.5463 79.4816C91.0083 79.7978 89.2772 80.6272 87.371 81.8875L87.9225 82.7216ZM92.7478 80.4611L93.0805 81.4041L94.2256 81.0001L93.8929 80.057L93.5601 79.114L92.415 79.5181L92.7478 80.4611ZM93.8929 80.057L94.8591 80.3149L95.0994 79.4146L94.1332 79.1567L93.167 78.8988L92.9267 79.7991L93.8929 80.057ZM94.1332 79.1567L95.0685 79.5105C103.095 58.2924 107.913 37.0772 109.515 15.8673L108.518 15.792L107.52 15.7167C105.934 36.7235 101.161 57.7515 93.1979 78.8029L94.1332 79.1567ZM108.518 15.792L109.508 15.9268C109.66 14.8094 109.757 13.9448 109.792 13.3501C109.809 13.0612 109.815 12.7904 109.795 12.5725C109.785 12.4753 109.765 12.3072 109.695 12.1359C109.652 12.0283 109.389 11.4481 108.698 11.4602L108.715 12.46L108.733 13.4599C108.085 13.4712 107.857 12.9251 107.841 12.8863C107.8 12.7839 107.8 12.7195 107.803 12.7607C107.809 12.8197 107.812 12.965 107.796 13.2315C107.765 13.7474 107.677 14.5504 107.527 15.6572L108.518 15.792ZM108.715 12.46L108.574 11.4701L103.466 12.1993L103.607 13.1893L103.749 14.1793L108.857 13.45L108.715 12.46ZM103.607 13.1893L103.431 12.2049C98.5968 13.0687 94.9431 14.4963 92.6366 16.5986L93.3102 17.3376L93.9838 18.0767C95.8778 16.3505 99.0888 15.0125 103.783 14.1737L103.607 13.1893ZM93.3102 17.3376L92.5909 16.643C91.1224 18.1636 90.0565 20.0773 89.3727 22.3504L90.3302 22.6385L91.2878 22.9266C91.8946 20.9097 92.8154 19.2896 94.0295 18.0323L93.3102 17.3376ZM90.3302 22.6385L89.3908 22.2958C89.0218 23.3075 88.4518 24.3437 87.6655 25.4037L88.4686 25.9995L89.2718 26.5952C90.1531 25.4072 90.8242 24.2026 91.2697 22.9811L90.3302 22.6385ZM88.4686 25.9995L87.803 25.2532C84.9023 27.8405 81.8714 29.2827 78.7034 29.6554L78.8203 30.6486L78.9371 31.6417C82.5829 31.2127 85.9842 29.5555 89.1343 26.7457L88.4686 25.9995ZM78.8203 30.6486L78.8028 29.6487C78.3565 29.6565 78.0703 29.5833 77.8919 29.4928C77.7308 29.4111 77.6164 29.2959 77.5311 29.1127L76.6245 29.5347L75.7179 29.9567C75.9873 30.5355 76.4163 30.9869 76.9871 31.2764C77.5406 31.5572 78.1749 31.66 78.8377 31.6484L78.8203 30.6486ZM76.6245 29.5347L77.511 29.072C77.5128 29.0755 77.4935 29.0388 77.4797 28.9341C77.4661 28.831 77.4608 28.6846 77.4746 28.4863C77.5023 28.0866 77.602 27.547 77.7932 26.8521L76.8291 26.5867L75.865 26.3213C75.655 27.0842 75.5198 27.765 75.4794 28.3479C75.4406 28.9067 75.4786 29.5006 75.738 29.9975L76.6245 29.5347ZM76.8291 26.5867L77.78 26.8961C79.3306 22.1311 82.3685 17.9223 86.9528 14.2733L86.33 13.4909L85.7072 12.7085C80.8637 16.5638 77.5676 21.0856 75.8782 26.2772L76.8291 26.5867ZM86.33 13.4909L86.96 14.2675C94.5234 8.13244 104.078 4.47862 115.677 3.35L115.58 2.3547L115.483 1.3594C103.567 2.51887 93.6211 6.28916 85.7 12.7142L86.33 13.4909ZM126.505 12.1495L126.598 11.1539C125.774 11.0769 124.664 11.0535 123.286 11.0776L123.303 12.0774L123.32 13.0772C124.672 13.0537 125.697 13.0784 126.412 13.1452L126.505 12.1495ZM123.303 12.0774L123.286 11.0776L122.262 11.0954L122.279 12.0953L122.297 13.0951L123.32 13.0772L123.303 12.0774ZM122.279 12.0953L121.279 12.1127L121.29 12.7526L122.29 12.7352L123.29 12.7177L123.279 12.0778L122.279 12.0953ZM122.29 12.7352L121.297 12.6158L120.85 16.3362L121.843 16.4555L122.836 16.5749L123.283 12.8545L122.29 12.7352ZM121.843 16.4555L120.849 16.3483C118.728 36.0099 113.892 55.8552 106.333 75.886L107.268 76.239L108.204 76.5921C115.818 56.4159 120.697 36.4056 122.837 16.5628L121.843 16.4555ZM107.268 76.239L106.346 75.8523C105.895 76.9282 105.555 77.7501 105.327 78.3156C105.214 78.5973 105.126 78.8216 105.065 78.9842C105.035 79.0643 105.008 79.139 104.988 79.2022C104.978 79.2328 104.966 79.2725 104.955 79.3147C104.954 79.3198 104.916 79.4511 104.919 79.6085L105.919 79.5911L106.918 79.5736C106.92 79.6672 106.907 79.7378 106.904 79.7557C106.899 79.7836 106.894 79.8037 106.892 79.8113C106.888 79.8267 106.886 79.8315 106.89 79.8192C106.898 79.7966 106.913 79.7532 106.939 79.6829C106.991 79.5449 107.071 79.3395 107.183 79.0626C107.405 78.5107 107.74 77.6993 108.19 76.6257L107.268 76.239ZM105.919 79.5911L104.919 79.6085C104.927 80.1013 105.251 80.3788 105.401 80.4795C105.557 80.585 105.716 80.6365 105.81 80.663C106.012 80.7197 106.249 80.7495 106.48 80.7685C106.959 80.808 107.639 80.8172 108.5 80.8022L108.483 79.8024L108.465 78.8025C107.62 78.8173 107.02 78.8062 106.644 78.7753C106.552 78.7677 106.481 78.7596 106.428 78.7517C106.373 78.7434 106.35 78.7374 106.351 78.7376C106.352 78.7379 106.367 78.7421 106.392 78.7521C106.414 78.7615 106.461 78.7825 106.519 78.8213C106.614 78.8855 106.911 79.1235 106.918 79.5736L105.919 79.5911ZM108.483 79.8024L108.5 80.8022C113.001 80.7237 117.287 80.2159 121.356 79.2757L121.13 78.3014L120.905 77.3271C116.984 78.2333 112.838 78.7262 108.465 78.8025L108.483 79.8024ZM121.13 78.3014L121.347 79.2776C130.664 77.2097 138.562 73.4689 145.01 68.0349L144.365 67.2702L143.721 66.5055C137.553 71.704 129.96 75.3173 120.914 77.3252L121.13 78.3014ZM144.365 67.2702L145.004 68.0401C147.586 65.8991 149.783 63.5821 151.587 61.0872L150.776 60.5013L149.966 59.9154C148.27 62.261 146.192 64.4566 143.727 66.5004L144.365 67.2702ZM150.776 60.5013L151.579 61.0971C155.854 55.3349 158.412 48.8525 159.248 41.6675L158.255 41.5519L157.261 41.4363C156.465 48.2766 154.037 54.4272 149.973 59.9055L150.776 60.5013ZM158.255 41.5519L159.249 41.6549C159.55 38.7533 159.499 35.8569 159.098 32.9675L158.107 33.1052L157.117 33.2428C157.496 35.9727 157.544 38.7075 157.26 41.4489L158.255 41.5519ZM158.107 33.1052L159.094 32.9403C158.102 27.008 155.34 22.1814 150.815 18.5125L150.185 19.2893L149.555 20.0662C153.687 23.4153 156.207 27.7993 157.121 33.27L158.107 33.1052ZM150.185 19.2893L150.807 18.5061C145.211 14.065 137.08 11.6567 126.553 11.1507L126.505 12.1495L126.457 13.1484C136.771 13.6441 144.427 15.9957 149.563 20.0726L150.185 19.2893Z" fill="#FF0000" mask="url(#path-1-outside-1_2_11)"/>
</g>
<defs>
<filter id="filter0_d_2_11" x="0.0973206" y="0.981216" width="177.203" height="102.143" filterUnits="userSpaceOnUse" color-interpolation-filters="sRGB">
<feFlood flood-opacity="0" result="BackgroundImageFix"/>
<feColorMatrix in="SourceAlpha" type="matrix" values="0 0 0 0 0 0 0 0 0 0 0 0 0 0 0 0 0 0 127 0" result="hardAlpha"/>
<feOffset dy="4"/>
<feGaussianBlur stdDeviation="2"/>
<feComposite in2="hardAlpha" operator="out"/>
<feColorMatrix type="matrix" values="0 0 0 0 0 0 0 0 0 0 0 0 0 0 0 0 0 0 0.25 0"/>
<feBlend mode="normal" in2="BackgroundImageFix" result="effect1_dropShadow_2_11"/>
<feBlend mode="normal" in="SourceGraphic" in2="effect1_dropShadow_2_11" result="shape"/>
</filter>
</defs>
</svg>
